<svg xmlns="http://www.w3.org/2000/svg" viewBox="0 0 1772 756" width="1740" height="724" fill="transparent"><defs><style>@import url('https://fonts.googleapis.com/css2?family=Caveat+Brush&amp;family=Source+Code+Pro&amp;family=Source+Sans+Pro&amp;family=Crimson+Pro&amp;display=block');</style></defs><g transform="translate(413, 57) rotate(0, 194, 82)"><g id="574b2694-f74b-4eab-243e-e9cb65752b9d_svg" class="tl-centered-g"><g pointer-events="none" stroke="#788492" stroke-width="4.23" stroke-linecap="round"><line x1="2.11" y1="2.11" x2="385.88" y2="2.11" stroke-dasharray="0.03 6.47" stroke-dashoffset="0"/><line x1="385.88" y1="2.11" x2="385.88" y2="161.88" stroke-dasharray="0.03 6.62" stroke-dashoffset="0"/><line x1="385.88" y1="161.88" x2="2.11" y2="161.88" stroke-dasharray="0.03 6.47" stroke-dashoffset="0"/><line x1="2.11" y1="161.88" x2="2.11" y2="2.11" stroke-dasharray="0.03 6.62" stroke-dashoffset="0"/></g></g><g font-size="28" font-family="Caveat Brush" text-align="left" fill="#788492" transform-origin="top left" transform="translate(186, 66)"><text y="18.2"/></g></g><g transform="translate(444, 354) rotate(0, 38.5, 32)"><g id="0a7c5a1d-793f-4acf-1771-9bc51fe46794_svg" class="tl-centered-g"><path d="M 52.95,0.21 Q 52.95,0.21 56.47,0.15 59.99,0.10 64.46,0.08 68.93,0.05 72.02,1.83 75.12,3.61 75.98,7.22 76.84,10.83 76.96,14.61 77.07,18.39 77.05,22.19 77.02,25.99 77.06,29.80 77.10,33.61 77.22,37.42 77.34,41.23 77.46,45.05 77.57,48.86 77.68,52.74 77.78,56.62 75.98,59.59 74.19,62.56 69.89,63.33 65.58,64.10 60.94,64.16 56.31,64.22 51.59,64.15 46.87,64.08 42.13,64.07 37.38,64.06 32.63,64.14 27.88,64.21 23.12,64.29 18.37,64.36 13.56,64.42 8.76,64.48 5.57,62.71 2.38,60.93 1.52,57.30 0.66,53.67 0.56,49.85 0.47,46.03 0.53,42.20 0.58,38.36 0.57,34.51 0.57,30.67 0.48,26.82 0.39,22.97 0.30,19.12 0.21,15.26 0.14,11.35 0.07,7.44 1.88,4.46 3.68,1.49 7.97,0.74 12.25,-0.00 16.86,-0.02 21.47,-0.04 26.16,0.05 30.84,0.16 35.56,0.20 40.27,0.25 44.99,0.21 49.72,0.17 56.06,0.15 62.40,0.13 62.63,0.17 62.86,0.21 63.07,0.33 63.28,0.44 63.44,0.61 63.60,0.79 63.70,1.00 63.80,1.22 63.82,1.46 63.84,1.69 63.79,1.92 63.73,2.15 63.61,2.35 63.49,2.56 63.30,2.71 63.12,2.86 62.90,2.94 62.68,3.03 62.44,3.04 62.21,3.05 61.98,2.98 61.75,2.92 61.56,2.78 61.36,2.65 61.22,2.46 61.08,2.27 61.01,2.04 60.93,1.82 60.94,1.58 60.94,1.34 61.02,1.12 61.10,0.89 61.24,0.71 61.39,0.52 61.58,0.39 61.78,0.26 62.01,0.20 62.24,0.14 62.48,0.15 62.71,0.17 62.93,0.26 63.15,0.35 63.33,0.51 63.51,0.66 63.63,0.87 63.75,1.07 63.80,1.30 63.84,1.53 63.82,1.77 63.79,2.00 63.68,2.22 63.58,2.43 63.42,2.60 63.25,2.77 63.04,2.88 62.83,2.99 62.60,3.02 62.36,3.06 62.36,3.06 62.36,3.06 56.03,2.89 49.69,2.73 44.97,2.58 40.25,2.43 35.54,2.39 30.84,2.35 26.18,2.42 21.53,2.50 17.11,2.70 12.69,2.89 9.18,3.32 5.66,3.75 4.48,5.72 3.31,7.69 3.22,11.48 3.14,15.27 3.04,19.12 2.95,22.97 2.85,26.82 2.75,30.66 2.76,34.50 2.76,38.34 2.90,42.13 3.03,45.91 3.27,49.49 3.52,53.07 4.03,55.94 4.54,58.81 6.75,60.02 8.97,61.24 13.67,61.33 18.38,61.43 23.13,61.54 27.89,61.66 32.64,61.76 37.39,61.87 42.12,61.88 46.86,61.89 51.54,61.78 56.23,61.66 60.68,61.43 65.13,61.21 68.66,60.75 72.19,60.30 73.37,58.34 74.55,56.39 74.60,52.63 74.65,48.88 74.71,45.07 74.78,41.25 74.85,37.44 74.91,33.63 74.87,29.83 74.84,26.03 74.68,22.28 74.52,18.52 74.25,14.98 73.98,11.43 73.46,8.59 72.95,5.75 70.82,4.52 68.68,3.29 64.32,3.16 59.95,3.03 56.44,2.90 52.92,2.76 52.77,2.74 52.61,2.72 52.47,2.67 52.33,2.61 52.20,2.52 52.07,2.43 51.97,2.31 51.87,2.20 51.80,2.06 51.73,1.92 51.70,1.77 51.66,1.62 51.66,1.47 51.67,1.32 51.70,1.17 51.74,1.02 51.82,0.88 51.89,0.75 51.99,0.63 52.10,0.52 52.22,0.43 52.35,0.35 52.50,0.29 52.64,0.24 52.79,0.22 Z" fill="#1d1d1d" stroke="#1d1d1d" stroke-width="2" pointer-events="none"/></g><g font-size="28" font-family="Caveat Brush" text-align="left" fill="#1d1d1d" transform-origin="top left" transform="translate(15.5, 13)"><text y="18.2">.csv</text></g></g><g transform="translate(467, 613) rotate(0, 63, 33)"><g id="fdf54d2f-c1d4-44b2-02eb-5bd02243962b_svg" class="tl-centered-g"><path d="M 38.26,65.92 Q 38.26,65.92 32.09,65.98 25.92,66.04 18.14,66.08 10.37,66.12 6.43,64.36 2.49,62.59 1.38,58.91 0.26,55.22 0.07,51.29 -0.11,47.36 -0.11,43.43 -0.12,39.50 -0.17,35.56 -0.22,31.63 -0.35,27.69 -0.49,23.75 -0.62,19.81 -0.75,15.87 -0.86,11.86 -0.98,7.86 0.85,4.84 2.68,1.81 9.66,1.01 16.64,0.21 24.60,0.11 32.56,0.01 40.80,0.04 49.05,0.06 57.37,0.02 65.69,-0.00 74.04,-0.13 82.38,-0.25 90.73,-0.37 99.07,-0.49 107.44,-0.61 115.82,-0.72 119.92,1.03 124.02,2.78 125.13,6.51 126.23,10.24 126.38,14.25 126.52,18.25 126.46,22.25 126.40,26.26 126.39,30.27 126.38,34.28 126.45,38.30 126.52,42.31 126.59,46.33 126.66,50.34 126.71,54.42 126.76,58.49 124.91,61.53 123.05,64.57 116.11,65.32 109.18,66.06 101.27,66.09 93.37,66.12 85.19,66.03 77.01,65.93 68.75,65.89 60.49,65.85 52.21,65.90 43.93,65.95 32.81,65.98 21.69,66.01 21.46,65.97 21.22,65.93 21.01,65.82 20.81,65.71 20.64,65.54 20.48,65.36 20.38,65.15 20.28,64.93 20.26,64.70 20.24,64.46 20.29,64.23 20.34,64.00 20.46,63.80 20.59,63.59 20.77,63.44 20.95,63.29 21.17,63.20 21.39,63.12 21.63,63.10 21.86,63.09 22.09,63.16 22.32,63.22 22.52,63.36 22.71,63.49 22.85,63.68 23.00,63.87 23.07,64.09 23.14,64.32 23.14,64.56 23.14,64.79 23.06,65.02 22.99,65.24 22.84,65.43 22.70,65.62 22.50,65.75 22.30,65.88 22.08,65.94 21.85,66.00 21.61,65.99 21.37,65.98 21.16,65.89 20.94,65.80 20.76,65.64 20.58,65.49 20.46,65.29 20.33,65.08 20.28,64.85 20.24,64.62 20.26,64.38 20.29,64.15 20.39,63.93 20.49,63.72 20.65,63.55 20.82,63.38 21.03,63.27 21.24,63.16 21.47,63.12 21.71,63.08 21.71,63.08 21.71,63.08 32.82,63.24 43.94,63.39 52.22,63.53 60.50,63.67 68.75,63.71 77.01,63.74 85.17,63.65 93.33,63.57 101.12,63.36 108.91,63.15 115.08,62.68 121.25,62.22 122.39,60.23 123.53,58.24 123.63,54.28 123.73,50.33 123.85,46.31 123.97,42.30 124.08,38.29 124.20,34.27 124.21,30.28 124.22,26.28 124.09,22.33 123.96,18.39 123.68,14.69 123.40,10.99 122.70,7.98 122.00,4.97 118.87,3.76 115.73,2.55 107.41,2.49 99.08,2.43 90.73,2.36 82.39,2.30 74.05,2.24 65.70,2.17 57.39,2.21 49.07,2.25 40.84,2.41 32.62,2.57 24.77,2.85 16.93,3.12 10.71,3.64 4.50,4.15 3.37,6.11 2.25,8.08 2.21,11.96 2.17,15.84 2.11,19.78 2.06,23.72 2.01,27.66 1.96,31.60 2.01,35.52 2.06,39.45 2.24,43.32 2.43,47.19 2.76,50.82 3.09,54.46 3.80,57.41 4.50,60.37 7.50,61.61 10.49,62.84 18.21,62.98 25.93,63.11 32.10,63.24 38.28,63.36 38.43,63.38 38.58,63.40 38.73,63.46 38.87,63.51 39.00,63.60 39.12,63.69 39.22,63.81 39.33,63.92 39.40,64.06 39.47,64.20 39.50,64.35 39.54,64.50 39.54,64.65 39.54,64.80 39.50,64.95 39.46,65.10 39.39,65.24 39.32,65.37 39.21,65.49 39.11,65.60 38.98,65.69 38.86,65.78 38.71,65.83 38.57,65.89 38.41,65.90 Z" fill="#1d1d1d" stroke="#1d1d1d" stroke-width="2" pointer-events="none"/></g><g font-size="28" font-family="Caveat Brush" text-align="left" fill="#1d1d1d" transform-origin="top left" transform="translate(38.5, 14)"><text y="18.2">json</text></g></g><g transform="translate(614, 615) rotate(0, 68.5, 31.5)"><g id="aaae32d3-dd42-4019-0a19-14f7f8c639b3_svg" class="tl-centered-g"><path d="M 0.34,20.07 Q 0.34,20.07 0.23,17.21 0.13,14.36 0.05,10.70 -0.03,7.05 1.81,4.12 3.65,1.19 11.12,0.43 18.58,-0.32 27.14,-0.40 35.69,-0.48 44.57,-0.43 53.45,-0.39 62.41,-0.41 71.38,-0.44 80.36,-0.54 89.35,-0.65 98.34,-0.75 107.33,-0.86 116.35,-0.96 125.36,-1.06 129.61,0.67 133.86,2.41 135.07,6.02 136.28,9.64 136.49,13.51 136.71,17.38 136.72,21.23 136.73,25.09 136.78,28.95 136.84,32.81 136.97,36.67 137.11,40.53 137.24,44.39 137.37,48.25 137.49,52.17 137.60,56.10 135.76,59.11 133.91,62.11 126.43,62.87 118.96,63.63 110.37,63.69 101.79,63.75 92.89,63.68 83.98,63.61 74.99,63.61 66.00,63.60 56.99,63.68 47.98,63.76 38.96,63.84 29.94,63.92 20.90,63.99 11.86,64.07 7.61,62.32 3.35,60.57 2.16,56.97 0.97,53.37 0.78,49.53 0.59,45.68 0.60,41.85 0.62,38.02 0.59,34.19 0.56,30.36 0.46,26.53 0.35,22.69 0.24,17.55 0.13,12.40 0.16,12.17 0.20,11.93 0.31,11.72 0.42,11.51 0.59,11.35 0.76,11.19 0.98,11.09 1.19,10.99 1.43,10.96 1.66,10.93 1.90,10.98 2.13,11.03 2.33,11.15 2.53,11.28 2.69,11.46 2.84,11.64 2.93,11.86 3.02,12.08 3.03,12.31 3.05,12.55 2.98,12.78 2.92,13.01 2.79,13.20 2.66,13.40 2.47,13.54 2.28,13.69 2.06,13.76 1.83,13.84 1.60,13.84 1.36,13.84 1.13,13.77 0.91,13.69 0.72,13.55 0.53,13.41 0.40,13.21 0.26,13.01 0.20,12.79 0.14,12.56 0.15,12.32 0.16,12.08 0.25,11.86 0.33,11.64 0.49,11.46 0.64,11.28 0.84,11.16 1.04,11.04 1.28,10.98 1.51,10.93 1.74,10.96 1.98,10.98 2.19,11.08 2.41,11.18 2.58,11.34 2.75,11.51 2.87,11.71 2.98,11.92 3.02,12.16 3.05,12.39 3.05,12.39 3.05,12.39 2.98,17.54 2.90,22.68 2.83,26.51 2.75,30.34 2.78,34.16 2.80,37.98 2.97,41.74 3.14,45.51 3.46,49.03 3.78,52.55 4.54,55.42 5.30,58.30 8.63,59.54 11.95,60.78 20.95,60.89 29.95,60.99 38.97,61.10 47.98,61.21 56.99,61.31 66.00,61.42 74.99,61.42 83.98,61.43 92.86,61.31 101.75,61.19 110.23,60.95 118.70,60.72 125.42,60.24 132.13,59.76 133.25,57.82 134.37,55.88 134.41,52.08 134.44,48.28 134.50,44.42 134.55,40.55 134.60,36.70 134.65,32.84 134.60,28.99 134.55,25.15 134.35,21.36 134.16,17.57 133.82,14.02 133.47,10.48 132.69,7.58 131.92,4.68 128.60,3.45 125.28,2.21 116.31,2.14 107.34,2.06 98.35,1.98 89.35,1.90 80.37,1.82 71.38,1.74 62.42,1.76 53.46,1.78 44.60,1.93 35.74,2.07 27.29,2.33 18.84,2.59 12.14,3.07 5.45,3.55 4.32,5.43 3.19,7.31 3.12,10.83 3.06,14.35 2.98,17.20 2.89,20.06 2.87,20.21 2.86,20.37 2.80,20.51 2.75,20.66 2.66,20.78 2.57,20.91 2.46,21.01 2.34,21.11 2.21,21.19 2.07,21.26 1.92,21.30 1.77,21.33 1.62,21.33 1.46,21.33 1.31,21.30 1.16,21.26 1.03,21.19 0.89,21.12 0.78,21.02 0.66,20.92 0.57,20.79 0.48,20.66 0.43,20.52 0.37,20.37 0.35,20.22 Z" fill="#1d1d1d" stroke="#1d1d1d" stroke-width="2" pointer-events="none"/></g><g font-size="28" font-family="Caveat Brush" text-align="left" fill="#1d1d1d" transform-origin="top left" transform="translate(44, 12.5)"><text y="18.2">json</text></g></g><g transform="translate(298, 389) rotate(0, 30.5, 0.5)"><g id="d88b9b9a-2403-4030-2daf-b74b235c640f_svg" class="tl-centered-g"><defs><mask id="d88b9b9a-2403-4030-2daf-b74b235c640f_clip"><rect x="-100" y="-100" width="261" height="201" fill="white"/><rect x="30.5" y="0.5" width="0" height="0" rx="2" ry="2" fill="black" opacity="0.9"/></mask></defs><g pointer-events="none" opacity="1" mask=""><path d="M 0.01,-1.03 Q 0.01,-1.03 7.39,-0.88 14.76,-0.72 22.14,-0.58 29.51,-0.44 36.89,-0.30 44.26,-0.17 51.63,-0.03 59.01,0.09 59.15,0.11 59.29,0.14 59.41,0.21 59.53,0.28 59.63,0.38 59.73,0.48 59.78,0.61 59.84,0.74 59.85,0.88 59.87,1.02 59.83,1.16 59.80,1.30 59.73,1.42 59.65,1.54 59.54,1.63 59.43,1.72 59.30,1.77 59.17,1.82 59.03,1.82 58.89,1.83 58.75,1.79 58.62,1.75 58.50,1.67 58.38,1.59 58.30,1.47 58.22,1.36 58.17,1.22 58.13,1.09 58.13,0.95 58.14,0.81 58.18,0.67 58.23,0.54 58.32,0.43 58.41,0.32 58.52,0.24 58.64,0.16 58.78,0.13 58.92,0.09 59.06,0.10 59.20,0.11 59.33,0.17 59.46,0.22 59.56,0.31 59.67,0.41 59.74,0.53 59.81,0.65 59.84,0.79 59.87,0.93 59.85,1.07 59.83,1.21 59.77,1.34 59.71,1.46 59.61,1.56 59.51,1.67 59.39,1.73 59.26,1.79 59.12,1.81 58.98,1.84 58.98,1.84 58.98,1.84 51.61,1.73 44.23,1.62 36.86,1.51 29.48,1.41 22.10,1.31 14.73,1.21 7.35,1.12 -0.01,1.03 -0.13,1.01 -0.26,0.99 -0.37,0.95 -0.49,0.90 -0.59,0.83 -0.69,0.75 -0.77,0.66 -0.85,0.57 -0.91,0.46 -0.96,0.34 -0.99,0.22 -1.02,0.10 -1.02,-0.01 -1.02,-0.14 -0.98,-0.26 -0.95,-0.38 -0.89,-0.49 -0.83,-0.59 -0.75,-0.69 -0.67,-0.78 -0.56,-0.85 -0.46,-0.92 -0.34,-0.96 -0.23,-1.00 -0.10,-1.01 Z" fill="#1d1d1d" stroke="#1d1d1d" stroke-width="2.11" stroke-dasharray="none" stroke-dashoffset="none" stroke-linecap="round" stroke-linejoin="round" pointer-events="stroke"/><g><path d="M 47.27,-7.226048923927214 L 61,1 47.01,8.771801549630624" fill="none" stroke="#1d1d1d" stroke-width="4.23" stroke-linecap="round" stroke-linejoin="round" pointer-events="none"/></g></g></g><g font-size="28" font-family="Caveat Brush" text-align="left" fill="#1d1d1d" transform-origin="top left" transform="translate(22.5, -15.5)"><text y="18.2"/></g></g><g font-size="28" font-family="Caveat Brush" text-align="center" text-anchor="middle" fill="#1d1d1d" transform="translate(16, 362) rotate(0, 138, 19)"><text y="18.2" x="138">Model development process</text></g><g font-size="28" font-family="Caveat Brush" text-align="center" text-anchor="middle" fill="#1d1d1d" transform="translate(99.5, 396) rotate(0, 52.5, 19)"><text y="18.2" x="52.5">generates</text></g><g transform="translate(539.5, 351.5) rotate(0, 38.5, 32)"><g id="b4664c23-2382-4663-3b91-7da2b45ff924_svg" class="tl-centered-g"><path d="M 53.28,-0.16 Q 53.28,-0.16 56.90,-0.23 60.53,-0.30 65.13,-0.34 69.73,-0.39 72.86,1.38 76.00,3.16 76.84,6.79 77.68,10.41 77.76,14.22 77.84,18.02 77.78,21.84 77.72,25.67 77.72,29.50 77.72,33.33 77.80,37.17 77.88,41.01 77.96,44.85 78.04,48.69 78.10,52.58 78.17,56.48 76.37,59.45 74.58,62.42 70.18,63.24 65.79,64.07 61.05,64.19 56.31,64.31 51.48,64.30 46.65,64.29 41.80,64.35 36.94,64.40 32.08,64.55 27.21,64.69 22.35,64.83 17.48,64.96 12.56,65.09 7.65,65.22 4.42,63.45 1.19,61.69 0.33,58.01 -0.52,54.34 -0.61,50.46 -0.69,46.58 -0.63,42.68 -0.57,38.77 -0.56,34.86 -0.56,30.95 -0.64,27.03 -0.72,23.11 -0.79,19.19 -0.87,15.27 -0.93,11.30 -0.99,7.32 0.80,4.32 2.61,1.33 7.00,0.57 11.39,-0.19 16.13,-0.24 20.87,-0.28 25.69,-0.19 30.52,-0.11 35.37,-0.09 40.23,-0.06 45.09,-0.12 49.95,-0.18 56.48,-0.23 63.01,-0.28 63.24,-0.24 63.48,-0.20 63.69,-0.09 63.89,0.02 64.06,0.19 64.22,0.36 64.31,0.58 64.41,0.79 64.44,1.03 64.46,1.27 64.41,1.50 64.36,1.73 64.23,1.93 64.11,2.13 63.93,2.28 63.75,2.44 63.52,2.52 63.30,2.61 63.07,2.62 62.83,2.63 62.60,2.57 62.38,2.50 62.18,2.37 61.98,2.23 61.84,2.04 61.70,1.85 61.63,1.63 61.55,1.40 61.55,1.17 61.56,0.93 61.63,0.71 61.71,0.48 61.86,0.29 62.00,0.11 62.20,-0.02 62.39,-0.15 62.62,-0.21 62.85,-0.27 63.09,-0.26 63.32,-0.24 63.54,-0.15 63.76,-0.06 63.94,0.08 64.12,0.24 64.24,0.44 64.36,0.64 64.41,0.88 64.46,1.11 64.43,1.34 64.41,1.58 64.31,1.79 64.21,2.01 64.04,2.18 63.88,2.35 63.67,2.46 63.46,2.57 63.22,2.60 62.99,2.64 62.99,2.64 62.99,2.64 56.46,2.50 49.93,2.36 45.08,2.24 40.22,2.11 35.37,2.09 30.52,2.07 25.73,2.17 20.94,2.27 16.39,2.48 11.83,2.69 8.21,3.15 4.59,3.60 3.41,5.58 2.23,7.57 2.14,11.43 2.05,15.29 1.94,19.20 1.83,23.12 1.73,27.04 1.62,30.95 1.61,34.85 1.61,38.76 1.73,42.61 1.85,46.47 2.09,50.11 2.34,53.75 2.84,56.66 3.35,59.58 5.58,60.77 7.82,61.97 12.63,62.00 17.45,62.04 22.32,62.08 27.19,62.13 32.05,62.17 36.91,62.22 41.76,62.16 46.61,62.11 51.41,61.93 56.20,61.75 60.76,61.46 65.31,61.18 68.93,60.67 72.55,60.17 73.74,58.20 74.93,56.23 75.02,52.45 75.11,48.68 75.22,44.84 75.32,41.00 75.43,37.17 75.53,33.33 75.53,29.51 75.53,25.68 75.41,21.91 75.29,18.13 75.05,14.56 74.81,11.00 74.32,8.14 73.83,5.28 71.66,4.06 69.50,2.85 65.01,2.74 60.51,2.62 56.88,2.50 53.26,2.39 53.11,2.37 52.96,2.35 52.81,2.29 52.67,2.24 52.54,2.15 52.42,2.06 52.31,1.94 52.21,1.83 52.14,1.69 52.07,1.55 52.04,1.40 52.00,1.25 52.00,1.10 52.00,0.94 52.04,0.79 52.08,0.65 52.15,0.51 52.22,0.37 52.33,0.26 52.43,0.14 52.56,0.06 52.68,-0.02 52.83,-0.07 52.97,-0.13 53.13,-0.14 Z" fill="#1d1d1d" stroke="#1d1d1d" stroke-width="2" pointer-events="none"/></g><g font-size="28" font-family="Caveat Brush" text-align="left" fill="#1d1d1d" transform-origin="top left" transform="translate(15.5, 13)"><text y="18.2">.csv</text></g></g><g transform="translate(638.5, 351.5) rotate(0, 38.5, 34)"><g id="7a4b516c-67fc-42b0-2f35-399018b8ec1a_svg" class="tl-centered-g"><path d="M 52.39,-0.37 Q 52.39,-0.37 55.93,-0.50 59.48,-0.63 63.98,-0.76 68.48,-0.88 71.61,0.87 74.73,2.64 75.58,6.47 76.43,10.31 76.53,14.37 76.63,18.44 76.59,22.54 76.55,26.65 76.57,30.77 76.59,34.89 76.70,39.01 76.80,43.14 76.91,47.26 77.01,51.39 77.10,55.57 77.18,59.76 75.40,62.80 73.62,65.84 69.29,66.71 64.96,67.59 60.29,67.74 55.62,67.90 50.87,67.93 46.12,67.96 41.34,68.05 36.56,68.14 31.78,68.31 26.99,68.48 22.21,68.66 17.42,68.83 12.59,68.99 7.75,69.15 4.53,67.39 1.31,65.62 0.46,61.77 -0.38,57.92 -0.45,53.83 -0.53,49.74 -0.47,45.60 -0.40,41.47 -0.39,37.32 -0.38,33.18 -0.46,29.02 -0.54,24.87 -0.61,20.71 -0.68,16.56 -0.74,12.35 -0.80,8.14 0.98,5.09 2.78,2.05 7.09,1.19 11.40,0.34 16.04,0.21 20.68,0.08 25.41,0.08 30.13,0.08 34.88,0.01 39.63,-0.04 44.38,-0.18 49.13,-0.33 55.52,-0.49 61.90,-0.66 62.14,-0.62 62.37,-0.59 62.58,-0.48 62.79,-0.37 62.96,-0.20 63.12,-0.03 63.22,0.18 63.33,0.39 63.35,0.63 63.38,0.86 63.33,1.09 63.29,1.32 63.17,1.53 63.05,1.73 62.87,1.89 62.69,2.04 62.47,2.13 62.25,2.22 62.01,2.24 61.78,2.25 61.55,2.19 61.32,2.13 61.12,2.00 60.92,1.87 60.78,1.68 60.63,1.50 60.56,1.27 60.48,1.05 60.47,0.81 60.47,0.58 60.55,0.35 60.62,0.13 60.76,-0.05 60.90,-0.24 61.10,-0.38 61.29,-0.51 61.52,-0.58 61.75,-0.65 61.98,-0.64 62.22,-0.63 62.44,-0.54 62.66,-0.46 62.84,-0.30 63.03,-0.15 63.15,0.04 63.27,0.24 63.33,0.47 63.38,0.70 63.36,0.94 63.33,1.17 63.24,1.39 63.14,1.61 62.98,1.78 62.82,1.95 62.61,2.07 62.40,2.18 62.17,2.22 61.94,2.26 61.94,2.26 61.94,2.26 55.55,2.24 49.16,2.22 44.41,2.18 39.65,2.14 34.91,2.20 30.17,2.26 25.49,2.45 20.80,2.63 16.35,2.93 11.90,3.22 8.36,3.75 4.82,4.27 3.63,6.32 2.43,8.38 2.33,12.48 2.24,16.57 2.12,20.73 2.01,24.88 1.90,29.03 1.79,33.18 1.78,37.32 1.78,41.46 1.89,45.55 2.01,49.63 2.25,53.50 2.49,57.37 2.99,60.46 3.49,63.55 5.70,64.72 7.90,65.90 12.64,65.90 17.38,65.90 22.16,65.92 26.95,65.93 31.74,65.94 36.52,65.95 41.29,65.86 46.06,65.77 50.77,65.56 55.49,65.35 59.96,65.02 64.44,64.70 68.00,64.16 71.56,63.62 72.76,61.58 73.95,59.53 74.01,55.46 74.08,51.40 74.16,47.27 74.25,43.14 74.33,39.02 74.41,34.90 74.39,30.79 74.37,26.67 74.22,22.61 74.07,18.55 73.81,14.71 73.56,10.87 73.05,7.80 72.55,4.73 70.42,3.54 68.30,2.35 63.90,2.32 59.51,2.29 55.96,2.23 52.42,2.18 52.26,2.16 52.11,2.14 51.97,2.09 51.82,2.04 51.69,1.95 51.57,1.87 51.46,1.75 51.36,1.64 51.29,1.50 51.21,1.37 51.17,1.22 51.14,1.07 51.13,0.91 51.13,0.76 51.17,0.61 51.20,0.46 51.27,0.32 51.34,0.19 51.44,0.07 51.55,-0.04 51.67,-0.13 51.80,-0.22 51.94,-0.27 52.08,-0.33 52.24,-0.35 Z" fill="#1d1d1d" stroke="#1d1d1d" stroke-width="2" pointer-events="none"/></g><g font-size="28" font-family="Caveat Brush" text-align="left" fill="#1d1d1d" transform-origin="top left" transform="translate(15.5, 15)"><text y="18.2">.csv</text></g></g><g transform="translate(880.5, 98.5) rotate(0, 48.5, 41.5)"><g id="c6c7db43-7fdd-43d3-3c80-3f832fdc5f90_svg" class="tl-centered-g"><path d="M 29.60,81.54 Q 29.60,81.54 24.99,81.55 20.39,81.56 14.61,81.58 8.83,81.60 5.86,80.11 2.90,78.63 2.11,74.40 1.33,70.17 1.10,65.24 0.86,60.31 0.77,55.20 0.68,50.09 0.63,44.93 0.58,39.78 0.53,34.61 0.49,29.45 0.44,24.28 0.40,19.11 0.36,13.94 0.32,8.77 1.80,5.96 3.28,3.15 8.29,2.45 13.31,1.75 19.23,1.59 25.15,1.42 31.30,1.40 37.45,1.37 43.65,1.38 49.86,1.39 56.08,1.40 62.31,1.42 68.53,1.44 74.76,1.46 80.99,1.48 87.22,1.50 90.29,3.00 93.37,4.49 94.15,8.70 94.94,12.90 95.13,17.79 95.33,22.69 95.38,27.76 95.42,32.83 95.43,37.94 95.44,43.06 95.44,48.19 95.44,53.31 95.44,58.44 95.43,63.57 95.43,68.70 95.43,73.83 93.93,76.63 92.44,79.43 87.46,80.16 82.47,80.89 76.59,81.08 70.72,81.28 64.61,81.35 58.51,81.41 52.35,81.45 46.18,81.48 40.01,81.50 33.83,81.52 25.53,81.55" fill="#d2d2d2" pointer-events="none"/><path d="M 29.60,82.81 Q 29.60,82.81 25.00,82.92 20.39,83.03 14.57,83.13 8.75,83.23 5.28,81.43 1.81,79.64 0.85,75.04 -0.10,70.43 -0.25,65.40 -0.40,60.37 -0.40,55.24 -0.40,50.11 -0.45,44.95 -0.51,39.79 -0.64,34.62 -0.78,29.46 -0.92,24.29 -1.05,19.12 -1.18,13.90 -1.30,8.69 0.51,5.35 2.33,2.02 7.72,1.16 13.11,0.30 19.11,0.22 25.11,0.14 31.28,0.21 37.44,0.28 43.65,0.29 49.86,0.29 56.09,0.22 62.31,0.14 68.54,0.07 74.77,0.00 81.03,-0.06 87.29,-0.12 90.87,1.68 94.46,3.49 95.42,8.06 96.38,12.63 96.49,17.64 96.61,22.64 96.56,27.73 96.52,32.82 96.52,37.94 96.53,43.06 96.63,48.19 96.72,53.31 96.81,58.44 96.90,63.57 96.98,68.75 97.05,73.93 95.23,77.24 93.40,80.55 88.04,81.44 82.68,82.33 76.72,82.45 70.76,82.56 64.64,82.54 58.52,82.51 52.35,82.54 46.19,82.57 40.01,82.68 33.83,82.80 25.54,82.92 17.24,83.04 17.01,83.00 16.77,82.96 16.56,82.85 16.35,82.74 16.19,82.57 16.03,82.40 15.93,82.18 15.83,81.97 15.80,81.73 15.77,81.50 15.82,81.27 15.87,81.04 16.00,80.83 16.12,80.63 16.30,80.47 16.48,80.32 16.70,80.23 16.92,80.14 17.15,80.13 17.39,80.12 17.62,80.18 17.85,80.24 18.04,80.37 18.24,80.51 18.38,80.70 18.53,80.88 18.60,81.11 18.68,81.33 18.68,81.57 18.68,81.81 18.61,82.03 18.53,82.26 18.39,82.44 18.25,82.63 18.05,82.77 17.85,82.90 17.63,82.96 17.40,83.03 17.16,83.02 16.93,83.00 16.71,82.92 16.48,82.83 16.30,82.68 16.12,82.52 16.00,82.32 15.88,82.12 15.83,81.89 15.77,81.66 15.80,81.42 15.82,81.19 15.92,80.97 16.02,80.76 16.18,80.58 16.35,80.41 16.56,80.30 16.76,80.19 17.00,80.15 17.23,80.11 17.23,80.11 17.23,80.11 25.53,80.18 33.82,80.24 40.00,80.31 46.18,80.38 52.34,80.35 58.50,80.32 64.59,80.16 70.67,80.01 76.47,79.72 82.26,79.44 86.87,78.87 91.48,78.31 92.64,76.02 93.80,73.74 93.88,68.66 93.97,63.57 94.06,58.44 94.16,53.31 94.25,48.19 94.35,43.06 94.34,37.95 94.33,32.84 94.19,27.79 94.05,22.74 93.77,17.95 93.50,13.17 92.89,9.33 92.28,5.50 89.71,4.32 87.14,3.14 80.95,3.03 74.76,2.93 68.53,2.81 62.30,2.70 56.08,2.59 49.86,2.48 43.66,2.47 37.45,2.46 31.32,2.58 25.18,2.70 19.35,2.95 13.51,3.20 8.87,3.74 4.22,4.28 3.08,6.56 1.95,8.85 1.91,13.97 1.87,19.10 1.82,24.26 1.76,29.43 1.72,34.60 1.67,39.77 1.72,44.92 1.78,50.07 1.96,55.16 2.14,60.25 2.45,65.07 2.77,69.90 3.38,73.76 3.99,77.62 6.45,78.79 8.90,79.97 14.64,80.03 20.38,80.10 24.99,80.18 29.60,80.26 29.75,80.27 29.90,80.29 30.05,80.35 30.19,80.40 30.32,80.49 30.45,80.58 30.55,80.69 30.65,80.81 30.72,80.94 30.79,81.08 30.83,81.23 30.87,81.38 30.87,81.53 30.87,81.69 30.83,81.84 30.80,81.99 30.73,82.12 30.66,82.26 30.55,82.37 30.45,82.49 30.32,82.58 30.20,82.67 30.05,82.72 29.91,82.78 29.76,82.79 Z" fill="#1d1d1d" stroke="#1d1d1d" stroke-width="2" pointer-events="none"/></g><g font-size="28" font-family="Caveat Brush" text-align="left" fill="#1d1d1d" transform-origin="top left" transform="translate(25.5, 22.5)"><text y="18.2">png</text></g></g><g transform="translate(1137.5, 93.5) rotate(0, 52.5, 46)"><g id="f43fd49d-06a6-40bf-106a-b139a7c13d09_svg" class="tl-centered-g"><path d="M 32.07,90.81 Q 32.07,90.81 26.99,90.84 21.91,90.88 15.54,90.92 9.16,90.96 6.05,89.48 2.93,88.00 2.18,83.24 1.42,78.48 1.27,72.88 1.11,67.29 1.11,61.48 1.11,55.67 1.15,49.81 1.19,43.94 1.24,38.07 1.29,32.19 1.34,26.31 1.39,20.43 1.44,14.54 1.50,8.66 3.00,5.67 4.50,2.68 9.93,1.91 15.36,1.14 21.79,0.93 28.22,0.72 34.90,0.66 41.58,0.60 48.33,0.57 55.08,0.55 61.85,0.53 68.61,0.52 75.38,0.50 82.15,0.49 88.93,0.47 95.70,0.46 98.91,1.95 102.13,3.43 102.94,8.17 103.76,12.91 103.96,18.48 104.17,24.05 104.21,29.82 104.26,35.60 104.27,41.44 104.27,47.27 104.27,53.12 104.27,58.96 104.26,64.81 104.26,70.66 104.25,76.51 104.24,82.36 102.75,85.35 101.26,88.33 95.80,89.12 90.34,89.91 83.87,90.15 77.40,90.38 70.67,90.48 63.94,90.57 57.15,90.63 50.35,90.68 43.54,90.73 36.73,90.78 27.58,90.84" fill="#d2d2d2" pointer-events="none"/><path d="M 32.08,92.09 Q 32.08,92.09 27.00,92.21 21.92,92.34 15.51,92.47 9.10,92.59 5.46,90.77 1.82,88.95 0.90,83.83 -0.01,78.71 -0.08,73.02 -0.15,67.32 -0.06,61.50 0.02,55.67 0.06,49.80 0.10,43.94 0.06,38.06 0.01,32.18 -0.02,26.30 -0.06,20.41 -0.09,14.49 -0.13,8.57 1.71,5.07 3.56,1.56 9.36,0.62 15.15,-0.30 21.66,-0.42 28.18,-0.54 34.88,-0.51 41.57,-0.48 48.33,-0.51 55.08,-0.53 61.85,-0.64 68.61,-0.75 75.38,-0.86 82.15,-0.97 88.95,-1.07 95.76,-1.16 99.49,0.64 103.23,2.46 104.21,7.56 105.20,12.66 105.32,18.33 105.44,24.00 105.40,29.80 105.35,35.59 105.36,41.43 105.37,47.27 105.46,53.12 105.55,58.96 105.63,64.81 105.72,70.66 105.80,76.55 105.88,82.44 104.04,85.95 102.21,89.45 96.38,90.41 90.55,91.36 84.00,91.51 77.45,91.66 70.70,91.66 63.96,91.66 57.16,91.72 50.36,91.78 43.55,91.92 36.74,92.06 27.59,92.21 18.44,92.36 18.21,92.33 17.98,92.29 17.77,92.18 17.56,92.07 17.39,91.90 17.23,91.73 17.13,91.51 17.03,91.30 17.00,91.06 16.97,90.83 17.02,90.60 17.07,90.37 17.19,90.16 17.31,89.96 17.49,89.80 17.67,89.65 17.89,89.56 18.11,89.47 18.35,89.46 18.58,89.44 18.81,89.50 19.04,89.57 19.24,89.70 19.43,89.83 19.58,90.02 19.72,90.20 19.80,90.43 19.88,90.65 19.88,90.89 19.88,91.13 19.81,91.35 19.73,91.58 19.59,91.77 19.45,91.95 19.25,92.09 19.06,92.22 18.83,92.29 18.60,92.35 18.37,92.34 18.13,92.33 17.91,92.24 17.69,92.16 17.51,92.01 17.32,91.85 17.20,91.65 17.08,91.45 17.03,91.22 16.97,90.99 17.00,90.75 17.02,90.52 17.12,90.30 17.22,90.08 17.38,89.91 17.54,89.74 17.75,89.63 17.96,89.51 18.19,89.47 18.43,89.43 18.43,89.43 18.43,89.43 27.57,89.47 36.72,89.50 43.53,89.54 50.35,89.59 57.14,89.53 63.93,89.48 70.64,89.29 77.35,89.11 83.74,88.79 90.13,88.47 95.22,87.84 100.32,87.21 101.46,84.75 102.61,82.28 102.70,76.47 102.79,70.66 102.89,64.81 102.99,58.96 103.09,53.12 103.18,47.27 103.17,41.44 103.17,35.61 103.03,29.85 102.89,24.09 102.60,18.62 102.32,13.16 101.68,8.78 101.03,4.41 98.33,3.25 95.63,2.10 88.90,2.02 82.16,1.95 75.39,1.87 68.62,1.79 61.85,1.72 55.09,1.64 48.34,1.67 41.60,1.69 34.93,1.85 28.26,2.00 21.91,2.30 15.56,2.59 10.50,3.20 5.44,3.81 4.29,6.28 3.13,8.75 2.99,14.60 2.86,20.44 2.71,26.32 2.57,32.20 2.43,38.07 2.28,43.95 2.25,49.81 2.21,55.67 2.30,61.46 2.39,67.25 2.63,72.75 2.87,78.25 3.46,82.65 4.04,87.04 6.63,88.18 9.22,89.32 15.56,89.37 21.90,89.41 26.98,89.47 32.06,89.53 32.21,89.55 32.37,89.57 32.51,89.62 32.66,89.67 32.78,89.76 32.91,89.85 33.01,89.96 33.12,90.08 33.19,90.21 33.26,90.35 33.30,90.50 33.34,90.65 33.34,90.80 33.34,90.96 33.30,91.11 33.27,91.26 33.20,91.39 33.13,91.53 33.02,91.65 32.92,91.76 32.80,91.85 32.67,91.94 32.53,91.99 32.38,92.05 32.23,92.07 Z" fill="#1d1d1d" stroke="#1d1d1d" stroke-width="2" pointer-events="none"/></g><g font-size="28" font-family="Caveat Brush" text-align="left" fill="#1d1d1d" transform-origin="top left" transform="translate(29.5, 27)"><text y="18.2">png</text></g></g><g transform="translate(995.5, 99.5) rotate(0, 61, 42)"><g id="04370c56-295c-4ed6-36bf-708ede2076ab_svg" class="tl-centered-g"><path d="M 0.51,25.88 Q 0.51,25.88 0.49,21.93 0.48,17.99 0.46,13.03 0.45,8.08 1.93,5.33 3.42,2.57 9.79,1.90 16.16,1.23 23.78,1.09 31.40,0.95 39.33,0.94 47.27,0.94 55.28,0.97 63.30,1.00 71.34,1.03 79.37,1.07 87.42,1.11 95.46,1.15 103.50,1.19 111.55,1.23 115.09,2.73 118.63,4.23 119.51,8.53 120.39,12.83 120.59,17.84 120.79,22.85 120.81,28.05 120.84,33.24 120.82,38.48 120.80,43.72 120.77,48.97 120.75,54.22 120.71,59.48 120.68,64.73 120.65,69.98 120.62,75.24 119.12,78.07 117.62,80.90 111.28,81.62 104.95,82.35 97.38,82.53 89.80,82.72 81.92,82.77 74.03,82.82 66.07,82.83 58.10,82.84 50.11,82.85 42.13,82.86 34.13,82.86 26.14,82.86 18.15,82.86 10.16,82.87 6.63,81.38 3.10,79.89 2.19,75.56 1.27,71.23 1.03,66.18 0.78,61.13 0.70,55.90 0.63,50.66 0.60,45.38 0.56,40.10 0.54,34.80 0.52,29.51 0.50,22.40" fill="#d2d2d2" pointer-events="none"/><path d="M -0.76,25.89 Q -0.76,25.89 -0.87,21.94 -0.97,17.99 -1.07,12.99 -1.17,7.99 0.67,4.70 2.52,1.42 9.27,0.59 16.01,-0.22 23.69,-0.27 31.37,-0.32 39.32,-0.23 47.27,-0.15 55.29,-0.12 63.30,-0.09 71.34,-0.14 79.38,-0.20 87.42,-0.25 95.47,-0.30 103.53,-0.35 111.60,-0.40 115.65,1.41 119.69,3.23 120.76,7.88 121.82,12.54 121.94,17.67 122.06,22.80 122.00,28.02 121.93,33.23 121.91,38.48 121.90,43.72 121.96,48.97 122.02,54.23 122.09,59.48 122.15,64.74 122.20,70.04 122.25,75.34 120.39,78.69 118.53,82.05 111.82,82.93 105.11,83.80 97.47,83.90 89.84,84.00 81.94,83.95 74.04,83.91 66.07,83.92 58.10,83.94 50.11,84.04 42.13,84.13 34.13,84.23 26.14,84.33 18.12,84.42 10.11,84.51 6.07,82.70 2.04,80.90 0.94,76.22 -0.15,71.53 -0.32,66.36 -0.49,61.19 -0.47,55.93 -0.45,50.68 -0.49,45.39 -0.52,40.10 -0.63,34.81 -0.75,29.51 -0.87,22.40 -0.98,15.29 -0.95,15.06 -0.91,14.82 -0.80,14.61 -0.69,14.40 -0.52,14.24 -0.35,14.08 -0.13,13.98 0.07,13.88 0.31,13.85 0.54,13.82 0.78,13.87 1.01,13.92 1.21,14.04 1.41,14.17 1.57,14.35 1.72,14.53 1.81,14.75 1.90,14.97 1.91,15.20 1.93,15.44 1.86,15.67 1.80,15.90 1.67,16.09 1.54,16.29 1.35,16.43 1.16,16.58 0.94,16.65 0.71,16.73 0.48,16.73 0.24,16.73 0.01,16.66 -0.20,16.58 -0.39,16.44 -0.58,16.30 -0.71,16.10 -0.85,15.90 -0.91,15.68 -0.97,15.45 -0.96,15.21 -0.95,14.97 -0.86,14.75 -0.78,14.53 -0.62,14.35 -0.47,14.17 -0.27,14.05 -0.07,13.93 0.16,13.87 0.39,13.82 0.62,13.85 0.86,13.87 1.07,13.97 1.29,14.07 1.46,14.23 1.63,14.39 1.74,14.60 1.86,14.81 1.90,15.05 1.93,15.28 1.93,15.28 1.93,15.28 1.87,22.39 1.80,29.50 1.73,34.79 1.66,40.09 1.69,45.37 1.72,50.64 1.89,55.86 2.06,61.07 2.38,66.00 2.71,70.93 3.43,74.90 4.16,78.87 7.18,80.05 10.21,81.23 18.17,81.31 26.14,81.40 34.13,81.49 42.13,81.58 50.11,81.66 58.10,81.75 66.06,81.74 74.03,81.72 81.90,81.58 89.77,81.44 97.28,81.17 104.78,80.89 110.75,80.32 116.72,79.75 117.85,77.45 118.99,75.14 119.10,69.93 119.22,64.72 119.34,59.47 119.47,54.21 119.59,48.96 119.71,43.71 119.73,38.48 119.75,33.24 119.63,28.07 119.51,22.90 119.23,18.01 118.95,13.12 118.26,9.18 117.56,5.24 114.53,4.06 111.49,2.87 103.47,2.74 95.45,2.62 87.41,2.48 79.37,2.35 71.33,2.22 63.30,2.09 55.28,2.06 47.27,2.03 39.34,2.13 31.42,2.23 23.87,2.46 16.31,2.69 10.31,3.21 4.31,3.73 3.19,5.95 2.07,8.17 2.01,13.08 1.94,17.98 1.86,21.93 1.78,25.88 1.77,26.03 1.75,26.18 1.69,26.33 1.64,26.47 1.55,26.60 1.47,26.73 1.35,26.83 1.24,26.93 1.10,27.00 0.96,27.08 0.81,27.11 0.66,27.15 0.51,27.15 0.36,27.15 0.21,27.12 0.06,27.08 -0.07,27.01 -0.21,26.94 -0.32,26.83 -0.44,26.73 -0.53,26.61 -0.61,26.48 -0.67,26.34 -0.72,26.19 -0.74,26.04 Z" fill="#1d1d1d" stroke="#1d1d1d" stroke-width="2" pointer-events="none"/></g><g font-size="28" font-family="Caveat Brush" text-align="left" fill="#1d1d1d" transform-origin="top left" transform="translate(38, 23)"><text y="18.2">png</text></g></g><g transform="translate(422, 302.5) rotate(0, 189, 87)"><g id="50368a82-4992-4e66-1a14-6cf54ec3855f_svg" class="tl-centered-g"><g pointer-events="none" stroke="#788492" stroke-width="4.23" stroke-linecap="round"><line x1="2.11" y1="2.11" x2="375.88" y2="2.11" stroke-dasharray="0.03 6.52" stroke-dashoffset="0"/><line x1="375.88" y1="2.11" x2="375.88" y2="171.88" stroke-dasharray="0.03 6.49" stroke-dashoffset="0"/><line x1="375.88" y1="171.88" x2="2.11" y2="171.88" stroke-dasharray="0.03 6.52" stroke-dashoffset="0"/><line x1="2.11" y1="171.88" x2="2.11" y2="2.11" stroke-dasharray="0.03 6.49" stroke-dashoffset="0"/></g></g><g font-size="28" font-family="Caveat Brush" text-align="left" fill="#788492" transform-origin="top left" transform="translate(181, 71)"><text y="18.2"/></g></g><g transform="translate(875.5, 326.5) rotate(0, 52.5, 58.5)"><g id="f81ef449-f3bc-4caa-11a9-d3cb10919a45_svg" class="tl-centered-g"><path d="M 72.60,0.94 Q 72.60,0.94 77.68,0.91 82.75,0.87 89.12,0.83 95.49,0.79 98.60,2.27 101.71,3.75 102.51,9.79 103.31,15.84 103.52,23.05 103.72,30.27 103.78,37.78 103.84,45.28 103.85,52.87 103.87,60.46 103.88,68.06 103.89,75.66 103.89,83.27 103.90,90.88 103.90,98.49 103.91,106.10 102.42,109.54 100.93,112.97 95.52,113.88 90.10,114.80 83.68,115.07 77.27,115.35 70.59,115.46 63.92,115.57 57.18,115.64 50.44,115.71 43.69,115.77 36.94,115.83 30.18,115.89 23.42,115.94 16.66,116.00 9.90,116.05 6.68,114.58 3.47,113.10 2.61,107.05 1.75,100.99 1.49,93.77 1.23,86.55 1.12,79.03 1.01,71.51 0.94,63.92 0.87,56.33 0.81,48.71 0.76,41.10 0.70,33.48 0.64,25.86 0.59,18.24 0.53,10.62 2.01,7.19 3.48,3.75 8.93,2.84 14.38,1.93 20.85,1.67 27.31,1.40 34.03,1.30 40.76,1.20 47.54,1.14 54.33,1.08 61.14,1.03 67.94,0.98 77.08,0.91" fill="#d2d2d2" pointer-events="none"/><path d="M 72.59,-0.33 Q 72.59,-0.33 77.67,-0.45 82.74,-0.58 89.14,-0.71 95.55,-0.84 99.20,1.00 102.84,2.84 103.80,9.24 104.76,15.65 104.88,22.94 105.00,30.23 104.96,37.75 104.93,45.28 104.95,52.86 104.96,60.45 105.07,68.06 105.17,75.66 105.26,83.27 105.36,90.88 105.46,98.52 105.55,106.16 103.72,110.11 101.88,114.06 96.11,115.15 90.34,116.24 83.83,116.43 77.32,116.63 70.63,116.64 63.94,116.66 57.20,116.73 50.46,116.80 43.70,116.96 36.95,117.11 30.19,117.26 23.43,117.41 16.64,117.55 9.85,117.69 6.10,115.85 2.35,114.02 1.32,107.61 0.30,101.20 0.12,93.90 -0.04,86.60 -0.06,79.06 -0.07,71.53 -0.14,63.93 -0.21,56.34 -0.36,48.72 -0.51,41.11 -0.66,33.49 -0.81,25.87 -0.95,18.22 -1.10,10.58 0.72,6.61 2.54,2.65 8.34,1.57 14.14,0.49 20.70,0.31 27.26,0.12 34.00,0.11 40.74,0.10 47.53,0.04 54.32,-0.01 61.13,-0.15 67.93,-0.29 77.07,-0.45 86.21,-0.60 86.45,-0.57 86.68,-0.53 86.89,-0.42 87.10,-0.31 87.27,-0.14 87.43,0.02 87.53,0.24 87.63,0.45 87.66,0.69 87.69,0.92 87.64,1.15 87.59,1.38 87.47,1.59 87.35,1.79 87.17,1.95 86.99,2.10 86.77,2.19 86.55,2.28 86.31,2.29 86.07,2.31 85.85,2.25 85.62,2.18 85.42,2.05 85.22,1.92 85.08,1.73 84.93,1.55 84.86,1.32 84.78,1.10 84.78,0.86 84.78,0.62 84.85,0.40 84.93,0.17 85.07,-0.01 85.21,-0.20 85.40,-0.33 85.60,-0.46 85.83,-0.53 86.06,-0.59 86.29,-0.58 86.53,-0.57 86.75,-0.48 86.97,-0.40 87.15,-0.25 87.33,-0.09 87.46,0.10 87.58,0.30 87.63,0.53 87.68,0.76 87.66,1.00 87.64,1.23 87.54,1.45 87.44,1.66 87.28,1.84 87.12,2.01 86.91,2.12 86.70,2.24 86.47,2.28 86.23,2.32 86.23,2.32 86.23,2.32 77.09,2.29 67.95,2.26 61.15,2.21 54.34,2.17 47.56,2.23 40.77,2.29 34.07,2.48 27.36,2.68 20.99,3.03 14.62,3.38 9.53,4.12 4.43,4.85 3.30,7.76 2.17,10.66 2.14,18.26 2.11,25.85 2.07,33.47 2.03,41.09 2.00,48.70 1.97,56.32 2.04,63.91 2.10,71.50 2.30,79.00 2.50,86.51 2.85,93.65 3.20,100.79 3.90,106.49 4.59,112.18 7.27,113.30 9.95,114.42 16.68,114.45 23.41,114.48 30.16,114.51 36.92,114.55 43.68,114.58 50.43,114.62 57.17,114.55 63.90,114.48 70.56,114.27 77.21,114.07 83.53,113.71 89.86,113.35 94.92,112.61 99.98,111.87 101.13,108.96 102.27,106.05 102.35,98.47 102.43,90.88 102.52,83.27 102.61,75.67 102.69,68.06 102.78,60.46 102.76,52.88 102.74,45.29 102.59,37.80 102.44,30.30 102.15,23.17 101.86,16.03 101.22,10.34 100.58,4.66 98.00,3.54 95.43,2.42 89.09,2.38 82.76,2.34 77.68,2.28 72.61,2.22 72.46,2.20 72.30,2.19 72.16,2.13 72.02,2.08 71.89,1.99 71.76,1.91 71.66,1.79 71.55,1.68 71.48,1.54 71.41,1.40 71.37,1.26 71.33,1.11 71.33,0.95 71.33,0.80 71.37,0.65 71.40,0.50 71.47,0.36 71.54,0.22 71.65,0.11 71.75,-0.00 71.87,-0.09 72.00,-0.18 72.14,-0.23 72.29,-0.29 72.44,-0.31 Z" fill="#1d1d1d" stroke="#1d1d1d" stroke-width="2" pointer-events="none"/></g><g font-size="28" font-family="Caveat Brush" text-align="left" fill="#1d1d1d" transform-origin="top left" transform="translate(22.5, 39.5)"><text y="18.2">.html</text></g></g><g transform="translate(1011.5, 324) rotate(0, 52.5, 58.5)"><g id="807b5010-f5e9-49f3-3a0a-c1374cd0942a_svg" class="tl-centered-g"><path d="M 31.86,116.12 Q 31.86,116.12 26.76,116.15 21.66,116.18 15.27,116.22 8.87,116.25 5.75,114.77 2.63,113.29 1.82,107.23 1.01,101.17 0.80,93.94 0.58,86.71 0.51,79.18 0.44,71.65 0.41,64.04 0.38,56.44 0.36,48.82 0.34,41.19 0.32,33.56 0.30,25.93 0.28,18.30 0.27,10.67 1.75,7.24 3.24,3.80 8.74,2.89 14.25,1.99 20.79,1.72 27.32,1.46 34.11,1.36 40.91,1.26 47.77,1.20 54.63,1.15 61.51,1.10 68.39,1.05 75.27,1.01 82.15,0.97 89.04,0.92 95.92,0.88 99.17,2.36 102.41,3.84 103.22,9.90 104.03,15.97 104.21,23.20 104.40,30.43 104.43,37.96 104.46,45.50 104.44,53.10 104.43,60.71 104.41,68.34 104.38,75.97 104.36,83.60 104.33,91.23 104.30,98.86 104.28,106.50 102.78,109.93 101.28,113.37 95.81,114.28 90.33,115.18 83.84,115.44 77.34,115.70 70.59,115.80 63.84,115.89 57.02,115.95 50.20,116.00 43.37,116.05 36.54,116.09 27.36,116.14" fill="#d2d2d2" pointer-events="none"/><path d="M 31.86,117.40 Q 31.86,117.40 26.77,117.52 21.67,117.64 15.24,117.76 8.81,117.89 5.16,116.04 1.50,114.20 0.53,107.78 -0.43,101.36 -0.56,94.05 -0.69,86.74 -0.67,79.20 -0.64,71.66 -0.67,64.05 -0.70,56.44 -0.82,48.82 -0.93,41.19 -1.04,33.57 -1.15,25.94 -1.26,18.28 -1.36,10.62 0.46,6.66 2.29,2.70 8.15,1.62 14.01,0.54 20.64,0.36 27.27,0.18 34.08,0.17 40.89,0.17 47.76,0.11 54.62,0.05 61.50,-0.08 68.38,-0.22 75.26,-0.35 82.15,-0.49 89.06,-0.62 95.98,-0.75 99.76,1.09 103.54,2.94 104.51,9.36 105.48,15.77 105.58,23.09 105.68,30.40 105.61,37.95 105.55,45.49 105.54,53.10 105.52,60.71 105.59,68.34 105.66,75.97 105.73,83.60 105.80,91.23 105.86,98.90 105.92,106.56 104.07,110.51 102.23,114.47 96.40,115.55 90.57,116.63 83.98,116.80 77.39,116.98 70.63,116.98 63.86,116.99 57.03,117.04 50.21,117.10 43.38,117.23 36.54,117.37 27.36,117.52 18.19,117.66 17.95,117.63 17.72,117.59 17.51,117.48 17.30,117.37 17.13,117.20 16.97,117.03 16.87,116.81 16.77,116.60 16.74,116.36 16.71,116.13 16.76,115.90 16.81,115.66 16.93,115.46 17.05,115.26 17.23,115.10 17.41,114.95 17.63,114.86 17.85,114.77 18.09,114.76 18.33,114.74 18.55,114.80 18.78,114.87 18.98,115.00 19.18,115.13 19.32,115.32 19.47,115.51 19.54,115.73 19.62,115.95 19.62,116.19 19.62,116.43 19.55,116.65 19.47,116.88 19.33,117.07 19.19,117.26 18.99,117.39 18.80,117.52 18.57,117.59 18.34,117.65 18.11,117.64 17.87,117.63 17.65,117.54 17.43,117.46 17.25,117.31 17.07,117.15 16.94,116.95 16.82,116.75 16.77,116.52 16.71,116.29 16.74,116.05 16.76,115.81 16.86,115.60 16.96,115.38 17.12,115.21 17.28,115.04 17.49,114.93 17.70,114.81 17.93,114.77 18.17,114.73 18.17,114.73 18.17,114.73 27.35,114.77 36.53,114.81 43.36,114.86 50.20,114.91 57.01,114.86 63.82,114.80 70.56,114.61 77.29,114.42 83.69,114.08 90.09,113.74 95.22,113.00 100.34,112.27 101.49,109.35 102.64,106.44 102.75,98.83 102.87,91.22 102.99,83.59 103.10,75.96 103.22,68.34 103.34,60.71 103.35,53.11 103.36,45.50 103.24,37.98 103.12,30.47 102.85,23.31 102.58,16.16 101.93,10.45 101.28,4.74 98.58,3.63 95.87,2.52 89.02,2.47 82.16,2.43 75.28,2.38 68.40,2.33 61.52,2.29 54.64,2.24 47.78,2.30 40.92,2.35 34.15,2.54 27.37,2.74 20.93,3.08 14.49,3.43 9.33,4.17 4.18,4.90 3.04,7.81 1.90,10.72 1.83,18.33 1.76,25.93 1.69,33.56 1.62,41.19 1.54,48.81 1.47,56.43 1.50,64.04 1.53,71.64 1.69,79.15 1.85,86.67 2.16,93.82 2.47,100.97 3.11,106.68 3.76,112.38 6.35,113.50 8.94,114.62 15.30,114.67 21.66,114.71 26.75,114.78 31.85,114.84 32.00,114.86 32.16,114.88 32.30,114.93 32.44,114.98 32.57,115.07 32.70,115.16 32.80,115.27 32.91,115.39 32.98,115.52 33.05,115.66 33.09,115.81 33.13,115.96 33.13,116.11 33.13,116.27 33.09,116.42 33.06,116.57 32.98,116.70 32.91,116.84 32.81,116.96 32.71,117.07 32.58,117.16 32.46,117.25 32.31,117.30 32.17,117.36 32.02,117.38 Z" fill="#1d1d1d" stroke="#1d1d1d" stroke-width="2" pointer-events="none"/></g><g font-size="28" font-family="Caveat Brush" text-align="left" fill="#1d1d1d" transform-origin="top left" transform="translate(22.5, 39.5)"><text y="18.2">.html</text></g></g><g transform="translate(1151.5, 325) rotate(0, 52.5, 58.5)"><g id="06a82b80-252d-4201-3c2d-0218283bc323_svg" class="tl-centered-g"><path d="M 0.84,35.79 Q 0.84,35.79 0.81,30.13 0.77,24.46 0.73,17.34 0.69,10.23 2.17,6.93 3.65,3.62 9.09,2.74 14.53,1.85 20.98,1.58 27.43,1.31 34.13,1.20 40.84,1.08 47.61,1.01 54.38,0.94 61.17,0.87 67.95,0.81 74.75,0.75 81.54,0.69 88.33,0.63 95.13,0.57 98.35,2.04 101.57,3.52 102.36,9.58 103.16,15.65 103.33,22.88 103.51,30.12 103.52,37.65 103.54,45.18 103.52,52.79 103.50,60.40 103.46,68.03 103.43,75.66 103.39,83.29 103.36,90.93 103.32,98.56 103.28,106.20 101.78,109.63 100.28,113.07 94.90,113.97 89.52,114.87 83.14,115.12 76.77,115.38 70.14,115.46 63.52,115.55 56.82,115.60 50.13,115.65 43.43,115.68 36.72,115.72 30.01,115.75 23.30,115.78 16.58,115.81 9.87,115.85 6.67,114.36 3.47,112.88 2.62,106.84 1.77,100.79 1.52,93.58 1.27,86.37 1.18,78.87 1.08,71.36 1.02,63.78 0.97,56.20 0.92,48.60 0.87,41.00 0.81,30.79" fill="#d2d2d2" pointer-events="none"/><path d="M -0.43,35.80 Q -0.43,35.80 -0.55,30.13 -0.68,24.47 -0.81,17.32 -0.93,10.18 0.88,6.35 2.70,2.52 8.50,1.46 14.30,0.41 20.83,0.22 27.37,0.03 34.10,0.01 40.82,-0.00 47.59,-0.07 54.37,-0.15 61.15,-0.30 67.94,-0.46 74.73,-0.61 81.53,-0.77 88.35,-0.91 95.18,-1.06 98.94,0.78 102.70,2.62 103.66,9.04 104.61,15.46 104.70,22.77 104.79,30.09 104.71,37.63 104.63,45.18 104.61,52.79 104.59,60.40 104.65,68.03 104.71,75.66 104.76,83.30 104.82,90.93 104.87,98.59 104.92,106.26 103.08,110.21 101.23,114.17 95.49,115.24 89.76,116.31 83.29,116.48 76.82,116.65 70.17,116.65 63.53,116.65 56.84,116.69 50.14,116.74 43.43,116.87 36.73,116.99 30.01,117.12 23.30,117.25 16.56,117.36 9.81,117.48 6.08,115.64 2.34,113.80 1.33,107.40 0.32,100.99 0.16,93.71 -0.00,86.42 -0.00,78.90 -0.00,71.38 -0.06,63.79 -0.12,56.21 -0.26,48.61 -0.40,41.00 -0.55,30.80 -0.70,20.59 -0.66,20.35 -0.63,20.12 -0.52,19.91 -0.41,19.70 -0.24,19.53 -0.07,19.37 0.14,19.27 0.35,19.17 0.59,19.14 0.82,19.12 1.05,19.16 1.29,19.21 1.49,19.34 1.69,19.46 1.85,19.64 2.00,19.82 2.09,20.04 2.18,20.25 2.19,20.49 2.21,20.73 2.15,20.96 2.08,21.19 1.95,21.38 1.82,21.58 1.63,21.72 1.45,21.87 1.22,21.94 1.00,22.02 0.76,22.02 0.52,22.02 0.30,21.95 0.07,21.88 -0.11,21.73 -0.29,21.59 -0.43,21.40 -0.56,21.20 -0.63,20.97 -0.69,20.74 -0.68,20.51 -0.67,20.27 -0.58,20.05 -0.50,19.83 -0.34,19.65 -0.19,19.47 0.00,19.34 0.20,19.22 0.43,19.17 0.67,19.12 0.90,19.14 1.14,19.16 1.35,19.26 1.57,19.36 1.74,19.52 1.91,19.69 2.03,19.89 2.14,20.10 2.18,20.34 2.22,20.57 2.22,20.57 2.22,20.57 2.18,30.78 2.15,40.99 2.10,48.59 2.06,56.19 2.12,63.77 2.17,71.35 2.36,78.84 2.55,86.33 2.88,93.46 3.22,100.59 3.91,106.28 4.59,111.97 7.26,113.09 9.93,114.21 16.61,114.26 23.29,114.32 30.00,114.38 36.71,114.44 43.42,114.50 50.13,114.55 56.81,114.51 63.50,114.46 70.11,114.28 76.72,114.10 83.00,113.76 89.28,113.42 94.31,112.70 99.33,111.97 100.49,109.05 101.64,106.13 101.77,98.53 101.89,90.92 102.02,83.29 102.15,75.65 102.28,68.03 102.40,60.40 102.43,52.79 102.45,45.19 102.34,37.67 102.23,30.15 101.97,22.99 101.71,15.84 101.07,10.13 100.44,4.42 97.76,3.31 95.07,2.20 88.31,2.18 81.55,2.15 74.76,2.12 67.97,2.09 61.18,2.06 54.39,2.03 47.62,2.10 40.86,2.18 34.17,2.38 27.48,2.59 21.12,2.94 14.76,3.30 9.68,4.01 4.60,4.73 3.47,7.51 2.33,10.28 2.28,17.37 2.24,24.45 2.18,30.12 2.12,35.79 2.10,35.94 2.08,36.09 2.03,36.24 1.98,36.38 1.89,36.51 1.80,36.64 1.69,36.74 1.57,36.84 1.44,36.91 1.30,36.99 1.15,37.02 1.00,37.06 0.85,37.06 0.69,37.06 0.54,37.03 0.39,36.99 0.26,36.92 0.12,36.85 0.00,36.75 -0.10,36.65 -0.19,36.52 -0.28,36.39 -0.33,36.25 -0.39,36.11 -0.41,35.95 Z" fill="#1d1d1d" stroke="#1d1d1d" stroke-width="2" pointer-events="none"/></g><g font-size="28" font-family="Caveat Brush" text-align="left" fill="#1d1d1d" transform-origin="top left" transform="translate(22.5, 39.5)"><text y="18.2">.html</text></g></g><g transform="translate(433.5, 98.47) rotate(0, 44.5, 42.11)"><g id="afa69bab-0a21-494f-2b0b-4a9ae7fd6639_svg" class="tl-centered-g"><path d="M 0.10,26.42 Q 0.10,26.42 0.00,22.46 -0.08,18.49 -0.17,13.47 -0.26,8.45 1.54,5.18 3.35,1.91 8.32,1.03 13.29,0.15 18.76,0.04 24.23,-0.06 29.83,-0.02 35.43,0.00 41.07,-0.02 46.71,-0.04 52.36,-0.15 58.01,-0.26 63.66,-0.37 69.31,-0.48 75.00,-0.58 80.70,-0.67 84.14,1.13 87.59,2.94 88.47,7.67 89.35,12.39 89.41,17.58 89.48,22.76 89.38,28.05 89.29,33.34 89.26,38.67 89.22,43.99 89.27,49.32 89.32,54.66 89.36,59.99 89.41,65.33 89.44,70.71 89.47,76.09 87.65,79.45 85.82,82.80 80.89,83.70 75.97,84.59 70.54,84.69 65.12,84.79 59.57,84.74 54.03,84.70 48.45,84.71 42.86,84.72 37.27,84.82 31.68,84.91 26.08,85.00 20.49,85.10 14.85,85.18 9.21,85.26 5.79,83.45 2.36,81.64 1.44,76.93 0.52,72.21 0.40,67.04 0.29,61.87 0.33,56.59 0.36,51.31 0.34,46.01 0.32,40.70 0.22,35.38 0.11,30.06 0.01,22.92 -0.09,15.78 -0.05,15.55 -0.01,15.31 0.09,15.10 0.20,14.89 0.37,14.73 0.54,14.57 0.76,14.47 0.97,14.37 1.21,14.34 1.44,14.32 1.67,14.37 1.91,14.42 2.11,14.54 2.31,14.66 2.47,14.84 2.62,15.02 2.71,15.24 2.80,15.46 2.81,15.70 2.82,15.93 2.76,16.16 2.70,16.39 2.56,16.59 2.43,16.78 2.24,16.93 2.05,17.07 1.83,17.15 1.60,17.22 1.37,17.22 1.13,17.22 0.91,17.15 0.68,17.07 0.49,16.93 0.30,16.79 0.17,16.59 0.04,16.39 -0.02,16.17 -0.08,15.94 -0.07,15.70 -0.06,15.47 0.02,15.25 0.11,15.03 0.26,14.84 0.42,14.66 0.62,14.54 0.82,14.42 1.05,14.37 1.28,14.32 1.52,14.34 1.76,14.37 1.97,14.47 2.19,14.56 2.36,14.73 2.53,14.89 2.64,15.10 2.75,15.31 2.79,15.54 2.83,15.78 2.83,15.78 2.83,15.78 2.75,22.92 2.67,30.06 2.59,35.37 2.51,40.69 2.53,45.99 2.55,51.29 2.70,56.53 2.84,61.77 3.12,66.74 3.40,71.71 3.98,75.69 4.56,79.66 6.97,80.83 9.38,82.00 14.93,82.08 20.49,82.17 26.08,82.26 31.68,82.35 37.27,82.44 42.86,82.53 48.43,82.52 54.01,82.51 59.52,82.37 65.03,82.23 70.27,81.97 75.51,81.70 79.68,81.14 83.86,80.58 85.04,78.23 86.22,75.89 86.35,70.60 86.48,65.30 86.62,59.97 86.76,54.64 86.90,49.31 87.03,43.98 87.07,38.66 87.11,33.34 87.01,28.09 86.92,22.84 86.69,17.85 86.46,12.86 85.92,8.88 85.38,4.90 82.96,3.74 80.54,2.58 74.93,2.51 69.32,2.44 63.67,2.36 58.02,2.28 52.37,2.21 46.72,2.13 41.09,2.16 35.46,2.18 29.89,2.34 24.32,2.49 19.03,2.77 13.74,3.04 9.52,3.59 5.31,4.14 4.14,6.39 2.98,8.63 2.91,13.56 2.83,18.49 2.75,22.45 2.66,26.42 2.64,26.57 2.62,26.72 2.57,26.87 2.52,27.01 2.43,27.14 2.34,27.27 2.23,27.37 2.11,27.47 1.97,27.54 1.84,27.61 1.69,27.65 1.54,27.69 1.38,27.69 1.23,27.69 1.08,27.65 0.93,27.62 0.79,27.54 0.66,27.47 0.54,27.37 0.43,27.27 0.34,27.14 0.25,27.02 0.20,26.87 0.14,26.73 0.12,26.57 Z" fill="#1d1d1d" stroke="#1d1d1d" stroke-width="2" pointer-events="none"/></g><g font-size="28" font-family="Caveat Brush" text-align="left" fill="#1d1d1d" transform-origin="top left" transform="translate(12, 23.11)"><text y="18.2">.yaml</text></g></g><g transform="translate(539.5, 94.62) rotate(0, 52, 44.61)"><g id="b4f081b0-dcee-470c-0689-e58e719efadf_svg" class="tl-centered-g"><path d="M 103.96,62.22 Q 103.96,62.22 104.01,66.45 104.06,70.68 104.08,76.02 104.10,81.37 102.25,84.73 100.41,88.09 94.66,88.96 88.91,89.84 82.47,89.93 76.02,90.02 69.39,89.96 62.77,89.90 56.08,89.90 49.40,89.91 42.70,89.99 36.01,90.08 29.31,90.16 22.61,90.24 15.88,90.32 9.14,90.39 5.43,88.57 1.72,86.75 0.73,81.79 -0.24,76.84 -0.37,71.35 -0.49,65.87 -0.44,60.27 -0.40,54.66 -0.41,49.02 -0.42,43.38 -0.51,37.73 -0.60,32.08 -0.69,26.43 -0.78,20.78 -0.86,15.09 -0.94,9.39 0.89,5.94 2.73,2.49 8.51,1.57 14.30,0.65 20.79,0.54 27.29,0.43 33.97,0.46 40.66,0.50 47.40,0.48 54.14,0.46 60.89,0.35 67.64,0.25 74.40,0.15 81.15,0.04 87.94,-0.04 94.73,-0.14 98.46,1.68 102.20,3.50 103.14,8.47 104.09,13.44 104.16,18.94 104.22,24.44 104.12,30.06 104.03,35.68 103.98,41.34 103.93,47.00 103.97,52.67 104.00,58.34 104.01,65.96 104.02,73.57 103.98,73.80 103.94,74.04 103.83,74.25 103.72,74.45 103.54,74.61 103.37,74.78 103.15,74.87 102.94,74.97 102.70,74.99 102.46,75.02 102.23,74.96 102.00,74.91 101.80,74.79 101.60,74.66 101.45,74.48 101.30,74.30 101.21,74.08 101.13,73.85 101.12,73.62 101.11,73.38 101.17,73.15 101.24,72.93 101.37,72.73 101.51,72.54 101.70,72.40 101.89,72.25 102.11,72.18 102.34,72.11 102.58,72.11 102.81,72.11 103.04,72.19 103.26,72.27 103.45,72.41 103.63,72.56 103.76,72.76 103.90,72.95 103.96,73.18 104.02,73.41 104.00,73.65 103.99,73.89 103.90,74.10 103.81,74.32 103.65,74.50 103.50,74.68 103.29,74.80 103.09,74.92 102.85,74.97 102.62,75.02 102.39,74.99 102.15,74.96 101.94,74.86 101.72,74.76 101.55,74.59 101.38,74.43 101.28,74.22 101.17,74.01 101.13,73.77 101.10,73.54 101.10,73.54 101.10,73.54 101.27,65.93 101.44,58.32 101.59,52.65 101.74,46.98 101.79,41.33 101.84,35.68 101.75,30.10 101.67,24.51 101.43,19.21 101.20,13.92 100.60,9.67 100.00,5.43 97.30,4.28 94.61,3.13 87.88,3.05 81.16,2.97 74.40,2.89 67.64,2.81 60.89,2.72 54.14,2.64 47.41,2.66 40.68,2.69 34.02,2.83 27.37,2.98 21.03,3.27 14.70,3.55 9.65,4.15 4.61,4.74 3.46,7.15 2.32,9.56 2.23,15.17 2.14,20.78 2.04,26.43 1.95,32.08 1.85,37.73 1.76,43.38 1.77,49.01 1.78,54.64 1.92,60.21 2.06,65.77 2.34,71.05 2.63,76.33 3.27,80.56 3.90,84.79 6.59,85.95 9.28,87.12 15.95,87.22 22.61,87.31 29.31,87.42 36.01,87.52 42.71,87.62 49.40,87.72 56.08,87.72 62.75,87.72 69.35,87.59 75.95,87.46 82.24,87.20 88.52,86.94 93.53,86.38 98.53,85.82 99.69,83.49 100.85,81.17 100.99,75.91 101.13,70.65 101.27,66.42 101.40,62.20 101.42,62.04 101.44,61.89 101.50,61.75 101.56,61.60 101.65,61.48 101.73,61.35 101.85,61.25 101.97,61.15 102.10,61.08 102.24,61.01 102.39,60.97 102.54,60.94 102.70,60.94 102.85,60.94 103.00,60.98 103.15,61.02 103.28,61.09 103.42,61.17 103.53,61.27 103.65,61.37 103.73,61.50 103.82,61.63 103.87,61.77 103.93,61.92 103.94,62.07 Z" fill="#1d1d1d" stroke="#1d1d1d" stroke-width="2" pointer-events="none"/></g><g font-size="28" font-family="Caveat Brush" text-align="left" fill="#1d1d1d" transform-origin="top left" transform="translate(19.5, 25.61)"><text y="18.2">.yaml</text></g></g><g transform="translate(659.5, 94.47) rotate(0, 47.5, 45.11)"><g id="3132fbaa-8a97-424e-08e0-9b86d3f9eabf_svg" class="tl-centered-g"><path d="M 65.61,-0.04 Q 65.61,-0.04 70.13,-0.09 74.65,-0.14 80.37,-0.16 86.08,-0.18 89.52,1.64 92.97,3.47 93.89,8.43 94.80,13.39 94.91,18.86 95.01,24.33 94.97,29.93 94.93,35.53 94.94,41.16 94.95,46.79 95.04,52.43 95.14,58.07 95.23,63.72 95.33,69.36 95.41,75.05 95.49,80.74 93.67,84.18 91.86,87.62 86.58,88.59 81.30,89.55 75.43,89.72 69.56,89.88 63.54,89.90 57.53,89.92 51.47,90.00 45.40,90.07 39.33,90.23 33.26,90.39 27.19,90.55 21.11,90.71 15.00,90.85 8.88,91.00 5.32,89.20 1.76,87.39 0.82,82.35 -0.11,77.30 -0.21,71.72 -0.32,66.13 -0.27,60.41 -0.22,54.69 -0.22,48.93 -0.22,43.17 -0.31,37.40 -0.40,31.63 -0.48,25.86 -0.57,20.09 -0.64,14.27 -0.72,8.46 1.11,4.98 2.94,1.50 8.21,0.62 13.48,-0.24 19.34,-0.28 25.20,-0.33 31.21,-0.23 37.22,-0.12 43.27,-0.07 49.33,-0.02 55.39,-0.05 61.46,-0.09 69.60,-0.09 77.75,-0.10 77.98,-0.06 78.21,-0.02 78.42,0.08 78.63,0.19 78.79,0.37 78.95,0.54 79.05,0.76 79.15,0.97 79.17,1.21 79.19,1.44 79.14,1.68 79.09,1.91 78.96,2.11 78.84,2.31 78.66,2.46 78.48,2.61 78.25,2.70 78.03,2.78 77.80,2.79 77.56,2.80 77.33,2.74 77.10,2.67 76.91,2.54 76.72,2.40 76.57,2.21 76.43,2.02 76.36,1.80 76.29,1.57 76.29,1.34 76.29,1.10 76.37,0.87 76.45,0.65 76.59,0.46 76.74,0.28 76.93,0.15 77.13,0.01 77.36,-0.04 77.59,-0.10 77.83,-0.08 78.06,-0.07 78.28,0.01 78.50,0.10 78.68,0.26 78.86,0.41 78.98,0.62 79.10,0.82 79.15,1.05 79.20,1.29 79.17,1.52 79.14,1.76 79.04,1.97 78.94,2.18 78.77,2.35 78.61,2.53 78.40,2.63 78.19,2.74 77.95,2.78 77.72,2.81 77.72,2.81 77.72,2.81 69.58,2.64 61.43,2.46 55.37,2.31 49.31,2.16 43.26,2.11 37.22,2.05 31.24,2.13 25.26,2.21 19.58,2.43 13.90,2.65 9.37,3.20 4.83,3.74 3.68,6.18 2.54,8.62 2.44,14.36 2.35,20.09 2.25,25.86 2.15,31.63 2.05,37.40 1.95,43.17 1.95,48.92 1.96,54.67 2.09,60.35 2.23,66.04 2.50,71.44 2.77,76.83 3.37,81.14 3.97,85.45 6.48,86.59 9.00,87.74 15.04,87.76 21.08,87.78 27.16,87.81 33.23,87.83 39.30,87.86 45.38,87.89 51.43,87.81 57.49,87.73 63.47,87.53 69.45,87.33 75.14,86.99 80.83,86.66 85.37,86.03 89.90,85.41 91.07,82.99 92.23,80.57 92.31,74.97 92.40,69.36 92.49,63.72 92.58,58.08 92.67,52.43 92.76,46.79 92.75,41.17 92.74,35.54 92.60,29.98 92.46,24.43 92.19,19.14 91.91,13.86 91.33,9.64 90.75,5.43 88.32,4.25 85.89,3.07 80.26,2.92 74.62,2.78 70.10,2.64 65.58,2.50 65.43,2.48 65.28,2.46 65.13,2.41 64.99,2.35 64.86,2.26 64.74,2.17 64.64,2.06 64.54,1.94 64.47,1.80 64.40,1.66 64.36,1.51 64.33,1.36 64.33,1.21 64.33,1.06 64.37,0.91 64.41,0.76 64.48,0.62 64.55,0.49 64.65,0.37 64.76,0.26 64.89,0.17 65.01,0.09 65.16,0.03 65.30,-0.01 65.46,-0.03 Z" fill="#1d1d1d" stroke="#1d1d1d" stroke-width="2" pointer-events="none"/></g><g font-size="28" font-family="Caveat Brush" text-align="left" fill="#1d1d1d" transform-origin="top left" transform="translate(15, 26.11)"><text y="18.2">.yaml</text></g></g><g transform="translate(418.5, 554) rotate(0, 189, 89)"><g id="cbedca81-ed3f-4d10-3f66-5baff54d7aa9_svg" class="tl-centered-g"><g pointer-events="none" stroke="#788492" stroke-width="4.23" stroke-linecap="round"><line x1="2.11" y1="2.11" x2="375.88" y2="2.11" stroke-dasharray="0.03 6.52" stroke-dashoffset="0"/><line x1="375.88" y1="2.11" x2="375.88" y2="175.88" stroke-dasharray="0.03 6.65" stroke-dashoffset="0"/><line x1="375.88" y1="175.88" x2="2.11" y2="175.88" stroke-dasharray="0.03 6.52" stroke-dashoffset="0"/><line x1="2.11" y1="175.88" x2="2.11" y2="2.11" stroke-dasharray="0.03 6.65" stroke-dashoffset="0"/></g></g><g font-size="28" font-family="Caveat Brush" text-align="left" fill="#788492" transform-origin="top left" transform="translate(181, 73)"><text y="18.2"/></g></g><g transform="translate(847.5, 58) rotate(0, 220, 82)"><g id="0a25fa79-d008-4fa5-3a98-08c73cefab32_svg" class="tl-centered-g"><g pointer-events="none" stroke="#788492" stroke-width="4.23" stroke-linecap="round"><line x1="2.11" y1="2.11" x2="437.88" y2="2.11" stroke-dasharray="0.03 6.47" stroke-dashoffset="0"/><line x1="437.88" y1="2.11" x2="437.88" y2="161.88" stroke-dasharray="0.03 6.62" stroke-dashoffset="0"/><line x1="437.88" y1="161.88" x2="2.11" y2="161.88" stroke-dasharray="0.03 6.47" stroke-dashoffset="0"/><line x1="2.11" y1="161.88" x2="2.11" y2="2.11" stroke-dasharray="0.03 6.62" stroke-dashoffset="0"/></g></g><g font-size="28" font-family="Caveat Brush" text-align="left" fill="#788492" transform-origin="top left" transform="translate(212, 66)"><text y="18.2"/></g></g><g transform="translate(845, 297.5) rotate(0, 221, 91)"><g id="a467f4c4-8021-4f49-3d87-0552704c1b63_svg" class="tl-centered-g"><g pointer-events="none" stroke="#788492" stroke-width="4.23" stroke-linecap="round"><line x1="2.11" y1="2.11" x2="439.88" y2="2.11" stroke-dasharray="0.03 6.50" stroke-dashoffset="0"/><line x1="439.88" y1="2.11" x2="439.88" y2="179.88" stroke-dasharray="0.03 6.55" stroke-dashoffset="0"/><line x1="439.88" y1="179.88" x2="2.11" y2="179.88" stroke-dasharray="0.03 6.50" stroke-dashoffset="0"/><line x1="2.11" y1="179.88" x2="2.11" y2="2.11" stroke-dasharray="0.03 6.55" stroke-dashoffset="0"/></g></g><g font-size="28" font-family="Caveat Brush" text-align="left" fill="#788492" transform-origin="top left" transform="translate(213, 75)"><text y="18.2"/></g></g><g transform="translate(1416, 61) rotate(0, 170, 339.5)"><g id="f275535a-595c-4fd1-1119-ca6ed03d85bb_svg" class="tl-centered-g"><path d="M 338.92,86.21 Q 338.92,86.21 338.92,92.29 338.92,98.38 338.91,106.01 338.91,113.64 338.91,121.67 338.90,129.69 338.90,137.82 338.89,145.95 338.89,154.11 338.89,162.26 338.88,170.42 338.88,178.58 338.87,186.74 338.87,194.91 338.87,203.07 338.86,211.23 338.86,219.39 338.85,227.56 338.85,235.72 338.84,243.88 338.84,252.05 338.84,260.21 338.83,268.37 338.83,276.53 338.82,284.70 338.82,292.86 338.82,301.02 338.81,309.19 338.81,317.35 338.80,325.51 338.80,333.67 338.80,341.84 338.79,350.00 338.79,358.16 338.78,366.33 338.78,374.49 338.77,382.65 338.77,390.81 338.77,398.98 338.76,407.14 338.76,415.30 338.75,423.47 338.75,431.63 338.75,439.79 338.74,447.95 338.74,456.12 338.73,464.28 338.73,472.44 338.73,480.61 338.72,488.77 338.72,496.93 338.71,505.09 338.71,513.26 338.70,521.42 338.70,529.58 338.70,537.75 338.69,545.91 338.69,554.07 338.68,562.23 338.68,570.40 338.68,578.56 338.67,586.72 338.67,594.89 338.66,603.05 338.66,611.21 338.66,619.37 338.65,627.54 338.65,635.70 338.64,643.86 338.64,652.03 338.63,660.19 338.63,668.35 337.14,671.92 335.65,675.50 329.13,676.40 322.61,677.31 314.81,677.54 307.00,677.76 298.87,677.82 290.74,677.87 282.53,677.88 274.32,677.89 266.08,677.89 257.85,677.88 249.61,677.88 241.37,677.87 233.13,677.87 224.89,677.86 216.65,677.86 208.41,677.85 200.17,677.85 191.92,677.84 183.68,677.84 175.44,677.83 167.20,677.82 158.96,677.82 150.72,677.81 142.48,677.81 134.23,677.80 125.99,677.80 117.75,677.79 109.51,677.78 101.27,677.78 93.03,677.77 84.79,677.77 76.54,677.76 68.30,677.76 60.06,677.75 51.82,677.74 43.58,677.74 35.34,677.73 27.10,677.73 18.85,677.72 10.61,677.72 7.02,676.22 3.43,674.73 2.51,668.28 1.59,661.83 1.36,654.12 1.12,646.40 1.06,638.36 0.99,630.33 0.97,622.21 0.95,614.09 0.95,605.95 0.94,597.80 0.94,589.66 0.93,581.51 0.93,573.36 0.92,565.22 0.92,557.07 0.92,548.92 0.91,540.77 0.91,532.62 0.91,524.48 0.90,516.33 0.90,508.18 0.89,500.03 0.89,491.88 0.89,483.74 0.88,475.59 0.88,467.44 0.88,459.29 0.87,451.14 0.87,443.00 0.87,434.85 0.86,426.70 0.86,418.55 0.86,410.40 0.85,402.26 0.85,394.11 0.85,385.96 0.84,377.81 0.84,369.66 0.83,361.52 0.83,353.37 0.83,345.22 0.82,337.07 0.82,328.92 0.82,320.78 0.81,312.63 0.81,304.48 0.81,296.33 0.80,288.18 0.80,280.04 0.80,271.89 0.79,263.74 0.79,255.59 0.79,247.44 0.78,239.30 0.78,231.15 0.77,223.00 0.77,214.85 0.77,206.70 0.76,198.56 0.76,190.41 0.76,182.26 0.75,174.11 0.75,165.96 0.75,157.82 0.74,149.67 0.74,141.52 0.74,133.37 0.73,125.22 0.73,117.07 0.72,108.93 0.72,100.78 0.72,92.63 0.71,84.48 0.71,76.33 0.71,68.19 0.70,60.04 0.70,51.89 0.70,43.74 0.69,35.59 0.69,27.45 0.69,19.30 0.68,11.15 2.17,7.58 3.66,4.01 10.19,3.09 16.72,2.16 24.54,1.90 32.36,1.65 40.50,1.56 48.65,1.48 56.88,1.44 65.10,1.40 73.35,1.37 81.60,1.34 89.86,1.32 98.11,1.29 106.37,1.27 114.63,1.24 122.88,1.22 131.14,1.19 139.40,1.17 147.66,1.14 155.91,1.12 164.17,1.10 172.43,1.07 180.68,1.05 188.94,1.02 197.20,1.00 205.46,0.97 213.71,0.95 221.97,0.92 230.23,0.90 238.48,0.87 246.74,0.85 255.00,0.82 263.26,0.80 271.51,0.77 279.77,0.75 288.03,0.72 296.28,0.70 304.54,0.67 312.80,0.65 321.06,0.63 329.31,0.60 332.91,2.08 336.50,3.57 337.42,10.03 338.33,16.49 338.56,24.22 338.79,31.94 338.85,40.00 338.90,48.05 338.91,56.18 338.93,64.32 338.92,72.47 338.92,80.63 338.92,88.79 338.92,96.95 338.91,105.11 338.91,113.28 338.91,121.44 338.90,129.60 338.90,137.76 338.89,145.93 338.89,154.09 338.89,162.25 338.88,170.42 338.88,178.58 338.87,186.74 338.87,194.90 338.87,203.07 338.86,211.23 338.86,219.39 338.85,227.56 338.85,235.72 338.84,243.88 338.84,252.05 338.84,260.21 338.83,268.37 338.83,276.53 338.82,284.70 338.82,292.86 338.82,301.02 338.81,309.19 338.81,317.35 338.80,325.51 338.80,333.67 338.80,341.84 338.79,350.00 338.79,358.16 338.78,369.12" fill="#e3e5e7" pointer-events="none"/><path d="M 340.42,86.21 Q 340.42,86.21 340.40,92.29 340.38,98.38 340.36,106.01 340.34,113.64 340.32,121.67 340.30,129.70 340.28,137.82 340.26,145.95 340.24,154.11 340.22,162.26 340.20,170.42 340.18,178.58 340.16,186.74 340.14,194.91 340.12,203.07 340.10,211.23 340.08,219.39 340.06,227.56 340.04,235.72 340.02,243.88 340.00,252.05 339.98,260.21 339.96,268.37 339.94,276.53 339.92,284.70 339.90,292.86 339.88,301.02 339.86,309.19 339.84,317.35 339.82,325.51 339.82,333.67 339.81,341.84 339.82,350.00 339.83,358.16 339.85,366.33 339.86,374.49 339.87,382.65 339.88,390.81 339.89,398.98 339.91,407.14 339.92,415.30 339.93,423.47 339.94,431.63 339.95,439.79 339.96,447.95 339.98,456.12 339.99,464.28 340.00,472.44 340.01,480.61 340.02,488.77 340.03,496.93 340.05,505.10 340.06,513.26 340.07,521.42 340.08,529.58 340.09,537.75 340.10,545.91 340.12,554.07 340.13,562.24 340.14,570.40 340.15,578.56 340.16,586.72 340.18,594.89 340.19,603.05 340.20,611.21 340.21,619.38 340.22,627.54 340.23,635.70 340.25,643.86 340.26,652.03 340.26,660.21 340.27,668.40 338.40,672.51 336.53,676.62 329.68,677.75 322.83,678.88 314.94,679.08 307.05,679.28 298.90,679.30 290.75,679.32 282.54,679.30 274.32,679.28 266.09,679.24 257.85,679.21 249.61,679.17 241.37,679.13 233.13,679.10 224.89,679.06 216.65,679.02 208.41,678.98 200.16,678.94 191.92,678.91 183.68,678.87 175.44,678.83 167.20,678.86 158.96,678.88 150.72,678.91 142.47,678.94 134.23,678.96 125.99,678.99 117.75,679.02 109.51,679.04 101.27,679.07 93.03,679.10 84.78,679.12 76.54,679.15 68.30,679.18 60.06,679.21 51.82,679.23 43.58,679.26 35.34,679.29 27.09,679.31 18.83,679.33 10.56,679.36 6.43,677.49 2.31,675.62 1.15,668.84 -0.00,662.06 -0.23,654.25 -0.46,646.45 -0.50,638.39 -0.55,630.34 -0.56,622.21 -0.56,614.09 -0.55,605.95 -0.54,597.81 -0.53,589.66 -0.52,581.51 -0.51,573.37 -0.49,565.22 -0.48,557.07 -0.47,548.92 -0.46,540.77 -0.45,532.63 -0.43,524.48 -0.42,516.33 -0.41,508.18 -0.40,500.03 -0.38,491.89 -0.37,483.74 -0.36,475.59 -0.35,467.44 -0.33,459.29 -0.32,451.15 -0.31,443.00 -0.30,434.85 -0.29,426.70 -0.27,418.55 -0.26,410.40 -0.25,402.26 -0.24,394.11 -0.22,385.96 -0.21,377.81 -0.20,369.66 -0.19,361.52 -0.17,353.37 -0.18,345.22 -0.18,337.07 -0.20,328.92 -0.22,320.78 -0.24,312.63 -0.26,304.48 -0.28,296.33 -0.30,288.18 -0.32,280.04 -0.34,271.89 -0.36,263.74 -0.38,255.59 -0.40,247.44 -0.41,239.30 -0.43,231.15 -0.45,223.00 -0.47,214.85 -0.49,206.70 -0.51,198.56 -0.53,190.41 -0.55,182.26 -0.57,174.11 -0.59,165.96 -0.61,157.82 -0.63,149.67 -0.65,141.52 -0.67,133.37 -0.69,125.22 -0.71,117.08 -0.72,108.93 -0.74,100.78 -0.76,92.63 -0.78,84.48 -0.80,76.34 -0.82,68.19 -0.84,60.04 -0.86,51.89 -0.88,43.74 -0.90,35.60 -0.92,27.45 -0.93,19.27 -0.95,11.10 0.91,7.00 2.77,2.89 9.63,1.74 16.50,0.59 24.40,0.36 32.31,0.13 40.47,0.08 48.63,0.03 56.86,0.02 65.10,0.01 73.35,0.02 81.60,0.02 89.85,0.03 98.11,0.03 106.37,0.04 114.62,0.05 122.88,0.06 131.14,0.06 139.40,0.07 147.65,0.08 155.91,0.09 164.17,0.10 172.42,0.04 180.68,-0.01 188.94,-0.07 197.20,-0.12 205.45,-0.18 213.71,-0.24 221.97,-0.30 230.22,-0.35 238.48,-0.41 246.74,-0.47 254.99,-0.52 263.25,-0.58 271.51,-0.64 279.77,-0.70 288.02,-0.75 296.28,-0.81 304.54,-0.87 312.79,-0.92 321.08,-0.98 329.36,-1.03 333.49,0.82 337.63,2.68 338.78,9.47 339.93,16.26 340.16,24.08 340.38,31.90 340.42,39.97 340.46,48.04 340.45,56.18 340.45,64.32 340.43,72.47 340.42,80.63 340.40,88.79 340.38,96.95 340.36,105.11 340.34,113.28 340.32,121.44 340.30,129.60 340.28,137.77 340.26,145.93 340.24,154.09 340.22,162.25 340.20,170.42 340.18,178.58 340.16,186.74 340.14,194.91 340.12,203.07 340.10,211.23 340.08,219.39 340.06,227.56 340.04,235.72 340.02,243.88 340.00,252.05 339.98,260.21 339.96,268.37 339.94,276.53 339.92,284.70 339.90,292.86 339.88,301.02 339.86,309.19 339.84,317.35 339.82,325.51 339.82,333.67 339.81,341.84 339.82,350.00 339.83,358.16 339.85,369.12 339.86,380.08 339.83,380.25 339.80,380.42 339.72,380.58 339.64,380.73 339.51,380.85 339.38,380.97 339.22,381.04 339.06,381.12 338.89,381.14 338.72,381.15 338.55,381.12 338.38,381.08 338.23,380.99 338.08,380.90 337.96,380.77 337.85,380.63 337.79,380.47 337.72,380.31 337.71,380.13 337.70,379.96 337.75,379.79 337.80,379.62 337.90,379.48 337.99,379.33 338.13,379.23 338.27,379.12 338.44,379.07 338.60,379.01 338.78,379.01 338.95,379.01 339.12,379.07 339.28,379.12 339.42,379.23 339.56,379.33 339.66,379.48 339.76,379.62 339.80,379.79 339.85,379.96 339.84,380.13 339.83,380.31 339.77,380.47 339.70,380.63 339.59,380.77 339.47,380.90 339.32,380.99 339.17,381.08 339.00,381.12 338.83,381.15 338.66,381.14 338.49,381.12 338.33,381.04 338.17,380.97 338.04,380.85 337.92,380.73 337.83,380.57 337.75,380.42 337.73,380.25 337.70,380.08 337.70,380.08 337.70,380.08 337.72,369.12 337.74,358.16 337.76,350.00 337.78,341.84 337.78,333.67 337.79,325.51 337.78,317.35 337.76,309.18 337.75,301.02 337.74,292.86 337.73,284.70 337.72,276.53 337.71,268.37 337.69,260.21 337.68,252.04 337.67,243.88 337.66,235.72 337.65,227.56 337.64,219.39 337.62,211.23 337.61,203.07 337.60,194.90 337.59,186.74 337.58,178.58 337.56,170.42 337.55,162.25 337.54,154.09 337.53,145.93 337.52,137.76 337.51,129.60 337.49,121.44 337.48,113.28 337.47,105.11 337.46,96.95 337.45,88.79 337.43,80.63 337.42,72.47 337.40,64.32 337.38,56.19 337.35,48.06 337.28,40.03 337.21,31.99 336.97,24.35 336.73,16.71 336.05,10.58 335.38,4.46 332.32,3.35 329.27,2.24 321.04,2.24 312.80,2.24 304.55,2.23 296.29,2.22 288.03,2.21 279.77,2.20 271.52,2.20 263.26,2.19 255.00,2.18 246.75,2.17 238.49,2.17 230.23,2.16 221.97,2.15 213.72,2.14 205.46,2.13 197.20,2.13 188.94,2.12 180.69,2.11 172.43,2.10 164.17,2.10 155.92,2.15 147.66,2.21 139.40,2.27 131.15,2.32 122.89,2.38 114.63,2.44 106.37,2.50 98.12,2.55 89.86,2.61 81.61,2.67 73.36,2.73 65.11,2.79 56.89,2.86 48.66,2.94 40.53,3.05 32.41,3.17 24.68,3.45 16.95,3.73 10.75,4.43 4.55,5.14 3.44,8.17 2.32,11.20 2.32,19.32 2.31,27.45 2.30,35.59 2.28,43.74 2.27,51.89 2.26,60.04 2.25,68.19 2.23,76.33 2.22,84.48 2.21,92.63 2.20,100.78 2.18,108.93 2.17,117.07 2.16,125.22 2.15,133.37 2.14,141.52 2.12,149.67 2.11,157.81 2.10,165.96 2.09,174.11 2.07,182.26 2.06,190.41 2.05,198.55 2.04,206.70 2.02,214.85 2.01,223.00 2.00,231.15 1.99,239.29 1.98,247.44 1.96,255.59 1.95,263.74 1.94,271.89 1.93,280.04 1.91,288.18 1.90,296.33 1.89,304.48 1.88,312.63 1.86,320.78 1.85,328.92 1.84,337.07 1.84,345.22 1.85,353.37 1.87,361.52 1.89,369.66 1.91,377.81 1.92,385.96 1.94,394.11 1.96,402.26 1.98,410.40 2.00,418.55 2.02,426.70 2.04,434.85 2.06,443.00 2.08,451.14 2.10,459.29 2.12,467.44 2.14,475.59 2.16,483.74 2.18,491.88 2.20,500.03 2.22,508.18 2.23,516.33 2.25,524.48 2.27,532.62 2.29,540.77 2.31,548.92 2.33,557.07 2.35,565.22 2.37,573.36 2.39,581.51 2.41,589.66 2.43,597.80 2.45,605.94 2.48,614.08 2.51,622.20 2.55,630.31 2.63,638.33 2.70,646.35 2.95,653.98 3.19,661.60 3.87,667.72 4.55,673.84 7.61,674.96 10.66,676.08 18.88,676.11 27.10,676.14 35.34,676.18 43.58,676.22 51.82,676.26 60.06,676.30 68.30,676.33 76.54,676.37 84.79,676.41 93.03,676.45 101.27,676.49 109.51,676.52 117.75,676.56 125.99,676.60 134.23,676.64 142.48,676.68 150.72,676.72 158.96,676.75 167.20,676.79 175.44,676.83 183.68,676.80 191.92,676.78 200.17,676.75 208.41,676.72 216.65,676.70 224.89,676.67 233.13,676.64 241.37,676.61 249.61,676.59 257.85,676.56 266.08,676.53 274.32,676.50 282.53,676.46 290.73,676.41 298.85,676.33 306.96,676.24 314.68,675.99 322.39,675.74 328.58,675.05 334.76,674.37 335.88,671.34 336.99,668.30 337.01,660.16 337.02,652.03 337.04,643.86 337.06,635.70 337.08,627.54 337.10,619.37 337.12,611.21 337.14,603.05 337.16,594.89 337.18,586.72 337.20,578.56 337.22,570.40 337.24,562.23 337.26,554.07 337.28,545.91 337.30,537.75 337.32,529.58 337.34,521.42 337.36,513.26 337.38,505.09 337.40,496.93 337.42,488.77 337.44,480.61 337.46,472.44 337.48,464.28 337.50,456.12 337.52,447.95 337.54,439.79 337.56,431.63 337.58,423.47 337.60,415.30 337.62,407.14 337.64,398.98 337.66,390.81 337.68,382.65 337.70,374.49 337.72,366.32 337.74,358.16 337.76,350.00 337.78,341.84 337.78,333.67 337.79,325.51 337.78,317.35 337.76,309.18 337.75,301.02 337.74,292.86 337.73,284.70 337.72,276.53 337.71,268.37 337.69,260.21 337.68,252.04 337.67,243.88 337.66,235.72 337.65,227.56 337.64,219.39 337.62,211.23 337.61,203.07 337.60,194.90 337.59,186.74 337.58,178.58 337.56,170.42 337.55,162.26 337.54,154.10 337.53,145.95 337.52,137.82 337.51,129.69 337.49,121.67 337.48,113.64 337.47,106.01 337.46,98.37 337.45,92.29 337.43,86.21 337.45,86.03 337.48,85.85 337.54,85.69 337.60,85.52 337.71,85.37 337.81,85.22 337.94,85.10 338.08,84.98 338.24,84.90 338.40,84.82 338.57,84.77 338.75,84.73 338.93,84.73 339.11,84.73 339.28,84.78 339.45,84.82 339.61,84.90 339.77,84.99 339.91,85.10 340.04,85.22 340.14,85.37 340.25,85.52 340.31,85.69 340.37,85.86 340.39,86.04 Z" fill="#788492" stroke="#788492" stroke-width="2" pointer-events="none"/></g><g font-size="28" font-family="Caveat Brush" text-align="left" fill="#788492" transform-origin="top left" transform="translate(106, 320.5)"><text y="18.2">MkDocs site</text></g></g><g transform="translate(877.5, 583.5) rotate(0, 52.5, 58.5)"><g id="ac8f470e-9bf3-4698-357b-ec1e1293c36e_svg" class="tl-centered-g"><path d="M 104.25,81.94 Q 104.25,81.94 104.32,87.64 104.39,93.35 104.49,100.51 104.58,107.67 103.11,110.98 101.65,114.30 96.21,115.13 90.78,115.97 84.34,116.17 77.89,116.37 71.19,116.41 64.49,116.45 57.72,116.44 50.95,116.44 44.16,116.43 37.38,116.41 30.59,116.40 23.80,116.38 17.01,116.37 10.22,116.35 7.00,114.86 3.78,113.36 2.95,107.26 2.12,101.15 1.90,93.87 1.69,86.59 1.62,79.01 1.56,71.43 1.54,63.77 1.52,56.11 1.51,48.44 1.50,40.76 1.49,33.08 1.48,25.39 1.47,17.71 1.46,10.03 2.95,6.58 4.44,3.13 9.81,2.28 15.18,1.43 21.54,1.25 27.90,1.06 34.51,1.05 41.13,1.03 47.81,1.06 54.48,1.09 61.18,1.13 67.87,1.17 74.57,1.21 81.27,1.25 87.97,1.29 94.67,1.33 97.87,2.84 101.07,4.34 101.96,10.42 102.85,16.51 103.15,23.77 103.45,31.03 103.60,38.58 103.75,46.14 103.86,53.77 103.97,61.40 104.07,69.05 104.18,76.70 104.31,86.98" fill="#d2d2d2" pointer-events="none"/><path d="M 105.53,81.92 Q 105.53,81.92 105.69,87.63 105.86,93.33 106.04,100.52 106.22,107.71 104.40,111.56 102.57,115.41 96.79,116.41 91.00,117.41 84.47,117.53 77.93,117.65 71.21,117.59 64.49,117.54 57.72,117.54 50.95,117.53 44.16,117.61 37.38,117.69 30.59,117.77 23.80,117.85 16.97,117.92 10.15,117.99 6.40,116.13 2.65,114.27 1.66,107.81 0.67,101.35 0.54,93.99 0.41,86.63 0.44,79.03 0.47,71.44 0.45,63.78 0.43,56.12 0.32,48.44 0.22,40.76 0.12,33.08 0.01,25.40 -0.07,17.69 -0.17,9.98 1.66,6.00 3.51,2.02 9.23,1.00 14.95,-0.00 21.41,-0.10 27.86,-0.20 34.49,-0.13 41.13,-0.05 47.81,-0.02 54.49,0.00 61.19,-0.05 67.88,-0.10 74.58,-0.15 81.28,-0.20 88.01,-0.25 94.75,-0.29 98.47,1.55 102.19,3.41 103.24,9.85 104.30,16.30 104.51,23.64 104.73,30.97 104.78,38.54 104.84,46.12 104.95,53.75 105.07,61.38 105.26,69.03 105.46,76.69 105.68,86.96 105.91,97.24 105.87,97.47 105.84,97.70 105.73,97.92 105.62,98.13 105.45,98.29 105.28,98.46 105.07,98.56 104.86,98.66 104.62,98.69 104.38,98.72 104.15,98.67 103.92,98.62 103.72,98.50 103.51,98.38 103.36,98.20 103.20,98.03 103.11,97.81 103.02,97.59 103.00,97.35 102.99,97.12 103.05,96.89 103.11,96.66 103.24,96.46 103.37,96.26 103.56,96.12 103.74,95.97 103.97,95.89 104.19,95.81 104.43,95.81 104.66,95.81 104.89,95.88 105.11,95.95 105.30,96.09 105.50,96.23 105.63,96.43 105.77,96.62 105.83,96.85 105.90,97.08 105.89,97.31 105.88,97.55 105.79,97.77 105.71,97.99 105.56,98.18 105.41,98.36 105.21,98.48 105.00,98.61 104.77,98.66 104.54,98.72 104.31,98.69 104.07,98.67 103.86,98.57 103.64,98.48 103.46,98.32 103.29,98.16 103.18,97.95 103.06,97.74 103.02,97.51 102.98,97.27 102.98,97.27 102.98,97.27 102.94,87.00 102.90,76.72 102.89,69.07 102.88,61.42 102.77,53.79 102.66,46.16 102.41,38.62 102.17,31.08 101.78,23.90 101.40,16.72 100.67,10.99 99.95,5.27 97.27,4.12 94.60,2.97 87.93,2.84 81.26,2.71 74.56,2.58 67.87,2.45 61.17,2.31 54.48,2.18 47.81,2.15 41.13,2.13 34.53,2.23 27.94,2.34 21.67,2.61 15.40,2.88 10.39,3.56 5.37,4.24 4.23,7.16 3.10,10.08 3.02,17.74 2.94,25.39 2.86,33.07 2.77,40.76 2.69,48.43 2.61,56.11 2.63,63.76 2.66,71.42 2.81,78.98 2.96,86.55 3.27,93.75 3.57,100.96 4.24,106.70 4.90,112.45 7.60,113.58 10.29,114.71 17.05,114.82 23.80,114.92 30.59,115.03 37.38,115.14 44.17,115.24 50.95,115.35 57.71,115.35 64.48,115.35 71.17,115.22 77.85,115.09 84.21,114.80 90.56,114.52 95.64,113.85 100.72,113.19 101.83,110.41 102.94,107.63 102.94,100.50 102.93,93.37 102.95,87.66 102.97,81.96 102.99,81.80 103.00,81.65 103.05,81.51 103.11,81.36 103.19,81.23 103.28,81.10 103.39,81.00 103.51,80.90 103.64,80.82 103.78,80.75 103.93,80.71 104.08,80.67 104.23,80.67 104.38,80.67 104.54,80.70 104.69,80.74 104.82,80.81 104.96,80.88 105.08,80.98 105.19,81.08 105.28,81.21 105.37,81.33 105.43,81.47 105.48,81.62 105.51,81.77 Z" fill="#1d1d1d" stroke="#1d1d1d" stroke-width="2" pointer-events="none"/></g><g font-size="28" font-family="Caveat Brush" text-align="left" fill="#1d1d1d" transform-origin="top left" transform="translate(17, 39.5)"><text y="18.2">.ipynb</text></g></g><g transform="translate(1015.5, 584) rotate(0, 52.5, 58.5)"><g id="a9abf62a-5db6-4cd8-07ca-dbe03b5eff59_svg" class="tl-centered-g"><path d="M 103.82,80.83 Q 103.82,80.83 103.84,86.51 103.86,92.19 103.89,99.31 103.91,106.43 102.43,109.74 100.95,113.04 95.51,113.94 90.08,114.83 83.64,115.11 77.19,115.39 70.49,115.52 63.79,115.64 57.03,115.72 50.26,115.81 43.48,115.88 36.70,115.95 29.91,116.02 23.12,116.10 16.34,116.17 9.55,116.23 6.33,114.76 3.11,113.29 2.26,107.20 1.40,101.10 1.15,93.83 0.90,86.56 0.81,78.98 0.72,71.41 0.66,63.76 0.60,56.11 0.56,48.44 0.51,40.77 0.47,33.09 0.43,25.42 0.38,17.74 0.34,10.07 1.82,6.62 3.30,3.17 8.74,2.29 14.19,1.40 20.64,1.16 27.10,0.93 33.81,0.86 40.52,0.79 47.30,0.76 54.08,0.74 60.87,0.72 67.67,0.71 74.47,0.69 81.27,0.68 88.07,0.67 94.87,0.66 98.09,2.14 101.32,3.63 102.16,9.68 103.01,15.74 103.24,22.96 103.48,30.18 103.56,37.70 103.64,45.21 103.69,52.81 103.73,60.40 103.76,68.01 103.79,75.62 103.83,85.85" fill="#d2d2d2" pointer-events="none"/><path d="M 105.10,80.83 Q 105.10,80.83 105.21,86.50 105.32,92.18 105.44,99.33 105.55,106.49 103.73,110.32 101.90,114.15 96.11,115.21 90.31,116.28 83.78,116.48 77.25,116.67 70.53,116.70 63.81,116.73 57.04,116.82 50.28,116.90 43.49,117.07 36.71,117.23 29.93,117.40 23.14,117.56 16.32,117.72 9.50,117.87 5.74,116.04 1.98,114.20 0.97,107.75 -0.04,101.30 -0.20,93.95 -0.36,86.60 -0.37,79.01 -0.37,71.42 -0.42,63.77 -0.48,56.12 -0.62,48.45 -0.76,40.78 -0.89,33.10 -1.03,25.43 -1.16,17.72 -1.29,10.02 0.53,6.05 2.36,2.07 8.16,1.01 13.95,-0.04 20.50,-0.19 27.05,-0.34 33.78,-0.32 40.51,-0.29 47.29,-0.32 54.08,-0.35 60.87,-0.45 67.67,-0.56 74.47,-0.67 81.27,-0.77 88.10,-0.87 94.93,-0.97 98.69,0.87 102.44,2.72 103.45,9.13 104.46,15.54 104.61,22.84 104.76,30.14 104.75,37.67 104.74,45.20 104.78,52.80 104.82,60.39 104.95,68.00 105.07,75.62 105.21,85.84 105.34,96.07 105.30,96.30 105.26,96.53 105.15,96.74 105.04,96.95 104.87,97.12 104.70,97.28 104.49,97.38 104.27,97.48 104.04,97.51 103.80,97.53 103.57,97.48 103.34,97.43 103.13,97.31 102.93,97.19 102.78,97.01 102.62,96.83 102.53,96.61 102.45,96.39 102.43,96.15 102.42,95.92 102.48,95.69 102.54,95.46 102.68,95.26 102.81,95.07 103.00,94.92 103.18,94.78 103.41,94.70 103.63,94.63 103.87,94.63 104.11,94.62 104.33,94.70 104.56,94.77 104.75,94.92 104.93,95.06 105.07,95.26 105.20,95.45 105.27,95.68 105.33,95.91 105.32,96.14 105.31,96.38 105.22,96.60 105.13,96.82 104.98,97.00 104.83,97.18 104.62,97.31 104.42,97.43 104.19,97.48 103.96,97.53 103.72,97.51 103.49,97.48 103.27,97.38 103.06,97.29 102.89,97.12 102.71,96.96 102.60,96.75 102.49,96.54 102.45,96.31 102.41,96.08 102.41,96.08 102.41,96.08 102.46,85.85 102.52,75.63 102.58,68.02 102.64,60.40 102.59,52.81 102.55,45.23 102.38,37.72 102.20,30.22 101.88,23.08 101.56,15.94 100.87,10.24 100.19,4.54 97.50,3.42 94.81,2.29 88.04,2.22 81.27,2.14 74.47,2.06 67.67,1.98 60.88,1.91 54.08,1.83 47.31,1.86 40.53,1.88 33.84,2.04 27.14,2.20 20.78,2.52 14.42,2.84 9.33,3.56 4.24,4.28 3.11,7.19 1.98,10.11 1.94,17.76 1.89,25.41 1.84,33.09 1.79,40.76 1.74,48.43 1.70,56.10 1.75,63.75 1.81,71.40 2.00,78.95 2.18,86.51 2.52,93.71 2.85,100.90 3.54,106.64 4.23,112.38 6.92,113.49 9.60,114.60 16.35,114.62 23.11,114.63 29.90,114.65 36.68,114.68 43.47,114.70 50.25,114.72 57.01,114.63 63.77,114.55 70.45,114.33 77.14,114.12 83.49,113.75 89.84,113.39 94.92,112.67 100.00,111.94 101.14,109.16 102.28,106.38 102.34,99.28 102.40,92.19 102.47,86.51 102.54,80.84 102.56,80.69 102.57,80.53 102.63,80.39 102.68,80.24 102.77,80.12 102.86,79.99 102.97,79.89 103.09,79.78 103.22,79.71 103.36,79.64 103.51,79.60 103.66,79.56 103.81,79.56 103.97,79.56 104.12,79.60 104.27,79.64 104.40,79.71 104.54,79.78 104.65,79.88 104.77,79.98 104.86,80.11 104.95,80.24 105.00,80.38 105.06,80.52 105.08,80.68 Z" fill="#1d1d1d" stroke="#1d1d1d" stroke-width="2" pointer-events="none"/></g><g font-size="28" font-family="Caveat Brush" text-align="left" fill="#1d1d1d" transform-origin="top left" transform="translate(17, 39.5)"><text y="18.2">.ipynb</text></g></g><g transform="translate(1157.5, 582) rotate(0, 52.5, 58.5)"><g id="054a66f1-326f-46f7-0504-b72689b86508_svg" class="tl-centered-g"><path d="M 0.92,35.71 Q 0.92,35.71 0.86,30.03 0.81,24.36 0.74,17.24 0.67,10.12 2.14,6.81 3.61,3.51 9.03,2.63 14.44,1.76 20.87,1.51 27.29,1.26 33.96,1.17 40.64,1.08 47.38,1.03 54.13,0.97 60.89,0.93 67.65,0.89 74.41,0.85 81.17,0.81 87.94,0.78 94.70,0.74 97.92,2.22 101.13,3.70 102.02,9.78 102.90,15.85 103.19,23.10 103.49,30.35 103.62,37.90 103.76,45.45 103.86,53.07 103.96,60.70 104.06,68.34 104.15,75.98 104.23,83.63 104.32,91.28 104.41,98.93 104.50,106.58 103.03,110.02 101.56,113.46 96.14,114.34 90.72,115.22 84.28,115.45 77.85,115.68 71.16,115.74 64.47,115.80 57.72,115.81 50.96,115.83 44.19,115.84 37.42,115.85 30.64,115.85 23.86,115.85 17.09,115.86 10.31,115.86 7.09,114.37 3.87,112.88 3.00,106.83 2.12,100.78 1.84,93.56 1.56,86.34 1.43,78.83 1.31,71.31 1.22,63.72 1.13,56.13 1.05,48.52 0.97,40.91 0.87,30.69" fill="#d2d2d2" pointer-events="none"/><path d="M -0.35,35.72 Q -0.35,35.72 -0.50,30.05 -0.65,24.37 -0.80,17.22 -0.96,10.07 0.85,6.24 2.67,2.40 8.44,1.36 14.21,0.32 20.72,0.15 27.24,-0.00 33.93,-0.00 40.63,-0.00 47.37,-0.06 54.12,-0.11 60.88,-0.24 67.64,-0.38 74.40,-0.51 81.17,-0.64 87.96,-0.76 94.76,-0.89 98.51,0.94 102.25,2.77 103.30,9.21 104.35,15.64 104.56,22.97 104.76,30.30 104.81,37.86 104.86,45.43 104.96,53.05 105.06,60.68 105.24,68.32 105.42,75.97 105.61,83.62 105.79,91.26 105.96,98.94 106.14,106.62 104.32,110.59 102.50,114.57 96.72,115.62 90.95,116.67 84.42,116.81 77.90,116.95 71.19,116.92 64.48,116.89 57.72,116.91 50.96,116.92 44.19,117.02 37.42,117.12 30.64,117.22 23.86,117.32 17.05,117.41 10.25,117.50 6.50,115.65 2.75,113.81 1.71,107.40 0.67,100.98 0.48,93.69 0.28,86.39 0.25,78.86 0.21,71.33 0.13,63.74 0.04,56.15 -0.12,48.54 -0.29,40.93 -0.49,30.71 -0.68,20.49 -0.65,20.25 -0.61,20.02 -0.50,19.81 -0.39,19.60 -0.22,19.44 -0.05,19.27 0.15,19.17 0.37,19.07 0.60,19.04 0.84,19.01 1.07,19.06 1.30,19.11 1.50,19.23 1.71,19.35 1.86,19.53 2.02,19.71 2.11,19.93 2.20,20.15 2.21,20.38 2.23,20.62 2.17,20.85 2.11,21.08 1.97,21.27 1.84,21.47 1.66,21.62 1.47,21.76 1.25,21.84 1.02,21.92 0.78,21.92 0.55,21.92 0.32,21.85 0.10,21.77 -0.08,21.63 -0.27,21.49 -0.41,21.30 -0.54,21.10 -0.61,20.87 -0.67,20.65 -0.66,20.41 -0.65,20.17 -0.57,19.95 -0.48,19.73 -0.33,19.55 -0.18,19.37 0.01,19.24 0.22,19.12 0.45,19.07 0.68,19.01 0.91,19.04 1.15,19.06 1.36,19.16 1.58,19.25 1.75,19.42 1.93,19.58 2.04,19.79 2.15,19.99 2.19,20.23 2.23,20.46 2.23,20.46 2.23,20.46 2.24,30.68 2.25,40.90 2.24,48.51 2.22,56.12 2.31,63.71 2.40,71.29 2.62,78.79 2.84,86.29 3.20,93.43 3.57,100.57 4.28,106.26 4.99,111.96 7.68,113.09 10.37,114.22 17.12,114.31 23.86,114.39 30.64,114.48 37.41,114.57 44.19,114.65 50.96,114.74 57.71,114.72 64.46,114.70 71.13,114.55 77.81,114.40 84.14,114.09 90.48,113.78 95.56,113.07 100.63,112.36 101.74,109.45 102.86,106.54 102.86,98.92 102.86,91.30 102.86,83.65 102.87,76.00 102.87,68.35 102.87,60.71 102.77,53.09 102.67,45.47 102.44,37.93 102.21,30.40 101.83,23.23 101.45,16.06 100.73,10.34 100.01,4.62 97.33,3.50 94.65,2.37 87.91,2.33 81.18,2.28 74.42,2.22 67.65,2.17 60.89,2.12 54.14,2.07 47.40,2.12 40.66,2.17 34.00,2.36 27.34,2.54 21.01,2.87 14.68,3.21 9.62,3.91 4.56,4.61 3.43,7.39 2.31,10.16 2.29,17.25 2.27,24.34 2.24,30.02 2.20,35.69 2.18,35.85 2.16,36.00 2.11,36.14 2.06,36.29 1.97,36.42 1.89,36.54 1.77,36.65 1.66,36.75 1.52,36.82 1.39,36.90 1.24,36.94 1.09,36.97 0.93,36.97 0.78,36.98 0.63,36.94 0.48,36.91 0.34,36.84 0.20,36.77 0.09,36.66 -0.02,36.56 -0.11,36.44 -0.20,36.31 -0.25,36.17 -0.31,36.02 -0.33,35.87 Z" fill="#1d1d1d" stroke="#1d1d1d" stroke-width="2" pointer-events="none"/></g><g font-size="28" font-family="Caveat Brush" text-align="left" fill="#1d1d1d" transform-origin="top left" transform="translate(17, 39.5)"><text y="18.2">.ipynb</text></g></g><g transform="translate(851, 554.5) rotate(0, 221, 91)"><g id="56187cd8-b851-4079-255b-75ee5292c457_svg" class="tl-centered-g"><g pointer-events="none" stroke="#788492" stroke-width="4.23" stroke-linecap="round"><line x1="2.11" y1="2.11" x2="439.88" y2="2.11" stroke-dasharray="0.03 6.50" stroke-dashoffset="0"/><line x1="439.88" y1="2.11" x2="439.88" y2="179.88" stroke-dasharray="0.03 6.55" stroke-dashoffset="0"/><line x1="439.88" y1="179.88" x2="2.11" y2="179.88" stroke-dasharray="0.03 6.50" stroke-dashoffset="0"/><line x1="2.11" y1="179.88" x2="2.11" y2="2.11" stroke-dasharray="0.03 6.55" stroke-dashoffset="0"/></g></g><g font-size="28" font-family="Caveat Brush" text-align="left" fill="#788492" transform-origin="top left" transform="translate(213, 75)"><text y="18.2"/></g></g><g font-size="28" font-family="Caveat Brush" text-align="center" text-anchor="middle" fill="#788492" transform="translate(550.5, 16) rotate(0, 49.5, 19)"><text y="18.2" x="49.5">variables</text></g><g font-size="28" font-family="Caveat Brush" text-align="center" text-anchor="middle" fill="#788492" transform="translate(539, 260.5) rotate(0, 57, 19)"><text y="18.2" x="57">table data</text></g><g font-size="28" font-family="Caveat Brush" text-align="center" text-anchor="middle" fill="#788492" transform="translate(447.5, 513.5) rotate(0, 158.5, 19)"><text y="18.2" x="158.5">interactive chart specifications</text></g><g font-size="28" font-family="Caveat Brush" text-align="center" text-anchor="middle" fill="#788492" transform="translate(1028, 18.5) rotate(0, 39, 19)"><text y="18.2" x="39">images</text></g><g font-size="28" font-family="Caveat Brush" text-align="center" text-anchor="middle" fill="#788492" transform="translate(977, 260.5) rotate(0, 92, 19)"><text y="18.2" x="92">standalone pages</text></g><g font-size="28" font-family="Caveat Brush" text-align="center" text-anchor="middle" fill="#788492" transform="translate(938, 513.5) rotate(0, 132, 19)"><text y="18.2" x="132">jupyter notebook analysis</text></g><g transform="translate(1312, 380) rotate(0, 38.25, 0.5)"><g id="94b1a2ca-a20e-42e5-35f9-7d81567e9a33_svg" class="tl-centered-g"><defs><mask id="94b1a2ca-a20e-42e5-35f9-7d81567e9a33_clip"><rect x="-100" y="-100" width="276.5" height="201" fill="white"/><rect x="38.25" y="0" width="0" height="0" rx="2.39" ry="2.39" fill="black" opacity="0.9"/></mask></defs><g pointer-events="none" opacity="1" mask=""><path d="M 0,-1.03 Q 0,-1.03 9.31,-1.00 18.62,-0.97 27.93,-0.95 37.25,-0.93 46.56,-0.91 55.87,-0.89 65.18,-0.88 74.5,-0.87 74.63,-0.85 74.77,-0.82 74.90,-0.76 75.02,-0.69 75.12,-0.59 75.22,-0.49 75.28,-0.36 75.34,-0.23 75.35,-0.09 75.37,0.04 75.34,0.18 75.31,0.32 75.24,0.44 75.16,0.56 75.05,0.65 74.95,0.75 74.81,0.80 74.68,0.85 74.54,0.86 74.40,0.87 74.26,0.83 74.13,0.79 74.01,0.71 73.89,0.63 73.81,0.52 73.72,0.40 73.68,0.27 73.63,0.14 73.63,-0.00 73.63,-0.14 73.68,-0.27 73.72,-0.41 73.81,-0.52 73.89,-0.63 74.01,-0.71 74.13,-0.79 74.26,-0.83 74.40,-0.87 74.54,-0.86 74.68,-0.85 74.81,-0.80 74.95,-0.74 75.05,-0.65 75.16,-0.56 75.24,-0.44 75.31,-0.32 75.34,-0.18 75.37,-0.04 75.35,0.09 75.34,0.23 75.28,0.36 75.22,0.49 75.12,0.59 75.02,0.69 74.90,0.76 74.77,0.82 74.63,0.85 74.49,0.87 74.49,0.87 74.5,0.87 65.18,0.88 55.87,0.89 46.56,0.91 37.25,0.93 27.93,0.95 18.62,0.97 9.31,1.00 0,1.03 -0.12,1.01 -0.24,1.00 -0.36,0.95 -0.47,0.91 -0.58,0.84 -0.68,0.77 -0.76,0.67 -0.84,0.58 -0.90,0.47 -0.96,0.36 -0.99,0.24 -1.02,0.12 -1.02,-0.00 -1.02,-0.12 -0.99,-0.24 -0.96,-0.36 -0.90,-0.47 -0.84,-0.58 -0.76,-0.67 -0.68,-0.77 -0.58,-0.84 -0.47,-0.91 -0.36,-0.95 -0.24,-1.00 -0.12,-1.01 Z" fill="#1d1d1d" stroke="#1d1d1d" stroke-width="2.11" stroke-dasharray="none" stroke-dashoffset="none" stroke-linecap="round" stroke-linejoin="round" pointer-events="stroke"/><g><path d="M 62.64,-7.999999999999999 L 76.5,0 62.64,7.999999999999999" fill="none" stroke="#1d1d1d" stroke-width="4.23" stroke-linecap="round" stroke-linejoin="round" pointer-events="none"/></g></g></g><g font-size="28" font-family="Caveat Brush" text-align="left" fill="#1d1d1d" transform-origin="top left" transform="translate(30.25, -15.5)"><text y="18.2"/></g></g></svg>